<svg xmlns="http://www.w3.org/2000/svg" xmlns:xlink="http://www.w3.org/1999/xlink" width="1402.504" height="1041.841" viewBox="0 0 1402.504 1041.841">
  <defs>
    <linearGradient id="linear-gradient" x1="3.458" y1="0.481" x2="4.47" y2="0.481" gradientUnits="objectBoundingBox">
      <stop offset="0" stop-color="#484857"/>
      <stop offset="1" stop-color="#2e2e2e"/>
    </linearGradient>
  </defs>
  <g id="Group_339" data-name="Group 339" transform="translate(8628.622 -574.942)">
    <g id="Group_96" data-name="Group 96" transform="translate(-8586.793 574.942)">
      <path id="Path_110" data-name="Path 110" d="M871.322,2821.931a.247.247,0,0,1-.051.328,47.335,47.335,0,0,1-20.69,13.1c-2.52.783-2.429-2.66-4.985-2.288-3.194.466-7.019,3.349-10.252,3.369-2.594.017-.479-14.055-3.042-14.269-18.781-7.263-22.26-10.482-32.465-13.91C816.439,2798.12,843.844,2790.383,871.322,2821.931Z" transform="translate(-737.341 -1876.224)" fill="#3dcf9e"/>
      <path id="Path_111" data-name="Path 111" d="M713.388,2438.064c-70.868,4.206-70.856-67.007-70.856-67.007S722.876,2374.194,713.388,2438.064Z" transform="translate(-638.931 -1608.264)" fill="#3dcf9e"/>
      <path id="Path_112" data-name="Path 112" d="M887.961,2494.982a.087.087,0,0,0,.158.053c24.686-31.578,33.538-45.329,29.279-66.708-5.517-27.7-25.727-35.847-25.727-35.847s-22.085,23.95-20.485,47.951C872.678,2462.8,888.6,2484.342,887.961,2494.982Z" transform="translate(-781.926 -1621.665)" fill="#3dcf9e"/>
      <path id="Path_113" data-name="Path 113" d="M756.357,2630.509c.277-.176.465-.448.256-.7-18.771-22.747-39.649-35.561-63.415-34.114-24.6,1.5-38.391,23.579-38.391,23.579S719.4,2654.045,756.357,2630.509Z" transform="translate(-646.612 -1748.726)" fill="#3dcf9e"/>
      <path id="Path_114" data-name="Path 114" d="M977.7,2676.785a.616.616,0,0,1-.661-.628c-2.486-61.537,47.977-80.574,47.977-80.574s19.782,17.737-2.53,53.028C1002.042,2680.946,982.613,2676.266,977.7,2676.785Z" transform="translate(-848.141 -1748.727)" fill="#3dcf9e"/>
      <path id="Path_115" data-name="Path 115" d="M997.822,2918.48c-.248-.1-.25-.366-.166-.616,13.624-40.625,67.026-28.7,67.026-28.7s22.132,13.241-10.126,26.626C1024.919,2928.083,1001.44,2919.891,997.822,2918.48Z" transform="translate(-861.066 -1931.37)" fill="#3dcf9e"/>
      <path id="Path_116" data-name="Path 116" d="M884.185,2753.171l-4.752-1.051c16.989-76.709-2.249-146.65-57.18-207.879l3.623-3.251c26.8,29.876,45.487,62.477,55.534,96.9C892.089,2674.48,893.023,2713.268,884.185,2753.171Z" transform="translate(-751.366 -1714.575)" fill="#3dcf9e"/>
      <path id="Path_117" data-name="Path 117" d="M766.9,2864.433a2.438,2.438,0,0,1-2.319-1.694c-6.95-21.8-15.037-42.973-37.343-62.378-6.219-5.409-15.548-10.636-25.425-16.172-24.833-13.917-55.738-31.237-59.165-63.906a2.434,2.434,0,0,1,4.841-.506c3.164,30.163,31.608,46.1,56.7,60.165,10.1,5.661,19.643,11.008,26.24,16.748,23.256,20.231,31.617,42.087,38.786,64.57a2.432,2.432,0,0,1-1.58,3.056A2.375,2.375,0,0,1,766.9,2864.433Z" transform="translate(-638.996 -1825.06)" fill="#3dcf9e"/>
      <path id="Path_118" data-name="Path 118" d="M736.986,2862.538a2.36,2.36,0,0,1-.426-.037c-19.907-3.513-37.362-10.11-51.88-19.605a107.634,107.634,0,0,1-37.549-42.2c-1.365-2.7,1.26-5.21,4.583-8.388.55-.526,1.275-1.221,1.918-1.878-.978.027-2.049.088-2.86.136-4.885.29-8.111.481-9.117-2.084-9.075-23.156-11.022-46.573-6.127-73.695a2.6,2.6,0,0,1,1.912-2.059,2.723,2.723,0,0,1,2.782.966c18.306,22.946,37.7,30.864,64.546,41.823,7.589,3.1,15.436,6.3,24.1,10.172,3.308,1.478,2.869,5.756,2.444,9.893a28.5,28.5,0,0,0-.235,4.71,43.639,43.639,0,0,0,3.936-2c4.095-2.257,7.329-4.035,9.522-1.919,18.913,18.244,27.509,50.524,21.9,82.232a2.434,2.434,0,1,1-4.793-.847c5.282-29.85-2.541-60.1-19.941-77.352a35.04,35.04,0,0,0-4.338,2.15c-3.869,2.129-6.925,3.812-9.143,2.179-2.545-1.873-2.158-5.651-1.747-9.649.163-1.586.43-4.177.147-5.07-8.485-3.786-16.211-6.939-23.687-9.992-26.041-10.632-45.246-18.47-63.412-39.555-3.619,23.832-1.582,44.744,6.33,65.362a43.582,43.582,0,0,0,4.639-.12c4.867-.288,8.081-.478,9.177,1.989,1.166,2.627-1.371,5.055-4.584,8.127a34.446,34.446,0,0,0-3.247,3.376c16.252,31.667,45.039,51.349,85.575,58.506a2.433,2.433,0,0,1-.42,4.83Z" transform="translate(-632.915 -1821.964)" fill="#3dcf9e"/>
      <path id="Path_119" data-name="Path 119" d="M880.442,1428.414a4.461,4.461,0,0,1-4.117-2.761l-3.31-8.049a54.462,54.462,0,0,1-15.059-.048L854.6,1425.6a4.457,4.457,0,0,1-5.822,2.394l-17.335-7.232a4.457,4.457,0,0,1-2.394-5.822l3.355-8.042a54.46,54.46,0,0,1-10.627-10.67l-8.051,3.31a4.457,4.457,0,0,1-5.81-2.424l-7.143-17.372a4.457,4.457,0,0,1,2.423-5.81l8.051-3.311a54.482,54.482,0,0,1,.047-15.059l-8.041-3.355a4.452,4.452,0,0,1-2.395-5.822l7.233-17.335a4.457,4.457,0,0,1,5.823-2.394l8.041,3.356a54.492,54.492,0,0,1,10.67-10.628l-3.31-8.05a4.45,4.45,0,0,1,2.424-5.81l17.371-7.144a4.457,4.457,0,0,1,5.81,2.424l3.311,8.051a54.466,54.466,0,0,1,15.058.047l3.355-8.041a4.457,4.457,0,0,1,5.823-2.4L899.8,1305.7a4.458,4.458,0,0,1,2.394,5.824l-3.355,8.042a54.447,54.447,0,0,1,10.627,10.668l8.05-3.31a4.449,4.449,0,0,1,5.81,2.424l7.143,17.371a4.452,4.452,0,0,1-2.425,5.81l-8.049,3.31a54.45,54.45,0,0,1-.048,15.058l8.042,3.356a4.452,4.452,0,0,1,2.394,5.823h0l-7.232,17.334a4.452,4.452,0,0,1-5.823,2.394l-8.042-3.355a54.464,54.464,0,0,1-10.67,10.627l3.311,8.05a4.452,4.452,0,0,1-2.424,5.81l-17.371,7.143A4.447,4.447,0,0,1,880.442,1428.414Zm-6.452-16.961a4.425,4.425,0,0,1,4.1,2.748l3.187,7.75,14.525-5.972-3.187-7.752a4.432,4.432,0,0,1,1.531-5.3,48.531,48.531,0,0,0,11.014-10.971,4.431,4.431,0,0,1,5.311-1.505l7.743,3.231,6.047-14.494-7.743-3.231a4.432,4.432,0,0,1-2.668-4.833,48.493,48.493,0,0,0,.05-15.545,4.433,4.433,0,0,1,2.691-4.82l7.751-3.186-5.973-14.525-7.75,3.187a4.432,4.432,0,0,1-5.3-1.532,48.5,48.5,0,0,0-10.97-11.013,4.432,4.432,0,0,1-1.5-5.312l3.23-7.742-14.494-6.046-3.23,7.743a4.431,4.431,0,0,1-4.833,2.667,48.511,48.511,0,0,0-15.545-.049,4.431,4.431,0,0,1-4.819-2.692l-3.187-7.75-14.525,5.974,3.187,7.749a4.433,4.433,0,0,1-1.532,5.3,48.5,48.5,0,0,0-11.014,10.97,4.43,4.43,0,0,1-5.312,1.505l-7.743-3.231-6.047,14.494,7.743,3.23a4.432,4.432,0,0,1,2.668,4.834,48.525,48.525,0,0,0-.049,15.545,4.433,4.433,0,0,1-2.692,4.819l-7.75,3.187,5.973,14.525,7.751-3.187a4.431,4.431,0,0,1,5.3,1.532,48.542,48.542,0,0,0,10.97,11.013,4.432,4.432,0,0,1,1.5,5.311l-3.231,7.743,14.494,6.047,3.23-7.743a4.432,4.432,0,0,1,4.835-2.667,48.5,48.5,0,0,0,15.544.049A4.528,4.528,0,0,1,873.99,1411.453Zm53.632-32.534h0Zm-2.765-1.152v0ZM865.622,1396.6a33.437,33.437,0,1,1,12.687-2.525A33.3,33.3,0,0,1,865.622,1396.6Zm0-60.757a27.374,27.374,0,1,0,10.407,52.691h0a27.381,27.381,0,0,0-10.407-52.691Z" transform="translate(-737.718 -936.988)" fill="#1daabf"/>
      <path id="Path_120" data-name="Path 120" d="M2319.548,962.86a5.855,5.855,0,0,1-6.051-5.654l-.05-1.438a32.357,32.357,0,0,1,3.481-16.592q3.8-7.134,14.275-15.381,10.095-7.742,13.237-12.484a17.43,17.43,0,0,0,2.952-10.458q-.219-6.4-5.062-9.594t-13.317-2.9q-12.769.434-28.378,8.177a5.849,5.849,0,0,1-7.738-2.451L2286.907,883a5.886,5.886,0,0,1,2.42-7.99,93.334,93.334,0,0,1,41.031-10.971q20.3-.69,32.6,8.659t12.857,25.607a34.622,34.622,0,0,1-4.292,18.889q-4.659,8.049-18.119,18.372-9.22,7.317-11.61,11.048a16.53,16.53,0,0,0-2.188,9.644v.059a5.856,5.856,0,0,1-5.654,6.052Zm-7.862,34q-.282-8.277,4.009-12.664t12.765-4.675q8.178-.278,12.809,3.905t4.905,12.263q.263,7.785-4.116,12.422t-12.46,4.911q-8.277.281-12.959-3.95T2311.686,996.865Z" transform="translate(-1667.209 -665.447)" fill="#3dcf9e"/>
      <path id="Path_121" data-name="Path 121" d="M3640.774,2006.381c-4.993,0-9.04-1.372-12.039-4.082-3.213-2.9-4.933-7.061-5.113-12.356h0c-.184-5.472,1.221-9.783,4.184-12.812,2.928-3,7.227-4.612,12.77-4.8,5.372-.187,9.705,1.172,12.868,4.028,3.181,2.875,4.888,7.046,5.069,12.4.176,5.171-1.253,9.4-4.246,12.569s-7.2,4.858-12.535,5.038C3641.41,2006.375,3641.088,2006.381,3640.774,2006.381Zm.782-29.2c-.268,0-.54.006-.813.014-4.251.145-7.432,1.268-9.458,3.341s-2.939,5.093-2.8,9.243c.133,3.981,1.283,6.9,3.508,8.911,2.253,2.032,5.381,2.951,9.57,2.811,4.061-.137,7.058-1.288,9.164-3.515s3.05-5.185,2.918-9.061c-.137-4.041-1.272-6.968-3.469-8.954C3648.108,1978.1,3645.28,1977.181,3641.556,1977.181Zm-8.837-14.491a7.529,7.529,0,0,1-7.52-7.276l-.042-1.251a30.635,30.635,0,0,1,3.317-15.674c2.387-4.483,6.661-9.114,13.068-14.159,5.641-4.327,9.336-7.788,11-10.3a12.677,12.677,0,0,0,2.165-7.678,7.317,7.317,0,0,0-3.314-6.4c-2.369-1.56-5.789-2.273-10.172-2.126-7.028.239-15,2.549-23.711,6.866a7.492,7.492,0,0,1-9.958-3.154l-5.215-9.646a7.555,7.555,0,0,1,3.108-10.264,84.024,84.024,0,0,1,36.781-9.834c12.3-.417,22.375,2.285,29.938,8.033,7.72,5.865,11.809,13.991,12.153,24.15a32.649,32.649,0,0,1-4.062,17.748c-2.891,4.994-8.248,10.455-16.384,16.7-6.362,5.049-8.707,7.687-9.555,9.012a12.126,12.126,0,0,0-1.524,7v.048a7.532,7.532,0,0,1-7.271,7.787l-12.543.427C3632.9,1962.689,3632.809,1962.689,3632.719,1962.689Zm9.6-69.758c4.832,0,8.785.988,11.756,2.948a12.117,12.117,0,0,1,5.5,10.3,17.632,17.632,0,0,1-2.97,10.532c-1.994,3.009-5.944,6.756-12.077,11.458-5.758,4.536-9.725,8.783-11.762,12.6a25.9,25.9,0,0,0-2.746,13.22l.042,1.251a2.666,2.666,0,0,0,2.755,2.574l12.542-.427a2.667,2.667,0,0,0,2.575-2.754l0-.046a16.834,16.834,0,0,1,2.286-9.8c1.547-2.417,5.033-5.757,10.648-10.213l.03-.025c7.522-5.77,12.622-10.91,15.151-15.284a27.886,27.886,0,0,0,3.412-15.143c-.3-8.749-3.645-15.434-10.234-20.44-6.651-5.053-15.682-7.425-26.83-7.044a79.216,79.216,0,0,0-34.665,9.271,2.687,2.687,0,0,0-1.105,3.649l5.217,9.646a2.643,2.643,0,0,0,3.514,1.111c9.331-4.628,17.979-7.109,25.7-7.371C3641.485,1892.938,3641.9,1892.931,3642.317,1892.931Z" transform="translate(-2490.015 -1295.893)" fill="#1daabf"/>
      <path id="Path_122" data-name="Path 122" d="M3138.767,2199.213c-7.723,0-12.843-3.337-17.792-6.565-5.094-3.318-9.907-6.453-17.772-6.322-7.8.131-12.062,3.208-16.575,6.466-4.373,3.156-8.894,6.42-16.27,6.42h0c-9.909,0-15.612-3.886-20.645-7.317-4.381-2.984-8.164-5.561-14.317-5.561h-.046c-6.918.013-11.1,2.948-15.518,6.055-4.745,3.334-9.652,6.783-17.78,6.823l-.024-4.865c6.6-.034,10.684-2.9,15.008-5.94,4.615-3.244,9.852-6.923,18.3-6.942h.057c7.653,0,12.435,3.259,17.058,6.409,4.884,3.328,9.5,6.472,17.9,6.472,5.8,0,9.334-2.55,13.422-5.5,4.694-3.389,10.016-7.229,19.344-7.383,9.364-.139,15.282,3.7,20.509,7.111,4.75,3.1,8.86,5.774,15.135,5.774h.11l.025,4.865C3138.857,2199.213,3138.812,2199.213,3138.767,2199.213Z" transform="translate(-2115.033 -1489.652)" fill="#3dcf9e"/>
      <path id="Path_145" data-name="Path 145" d="M1296.891,3107.926l33.09-.223v-.026Z" transform="translate(-1048.297 -2069.093)" fill="#3a91f9"/>
      <path id="Path_151" data-name="Path 151" d="M3662.162,517.4c11.314-12.068,23.648-15.424,38.221-8.98,18.126,8.015,18.626,35.553,29.938,52.145s40.3,37.177,29.741,74.133-86.586,45.233-89.226-15.1S3662.162,517.4,3662.162,517.4Z" transform="translate(-2528.013 -440.984)" fill="#282a2d"/>
      <path id="Path_152" data-name="Path 152" d="M3246.193,827.615a30.364,30.364,0,0,0,3.964-10.186c1.439-6.979,2.176-15.937,4.413-26.254,2.676-12.349,7.116-15.618,9.824-17.662.421-.318.9-.657,1.3-.95a145.85,145.85,0,0,1,11.1-14.707c2.28-2.379,14.636-2.765,17.414-2.418,0,0,2.594,21.086,6.362,32.685a104.187,104.187,0,0,0,10.565,21.934l-1.916,1.707a48.11,48.11,0,0,1-12.9,25.131c-6.414,6.413-16.24,16.246-19.815,21.979,0,0-14.017-14.616-20.553-19.709A37.912,37.912,0,0,1,3246.193,827.615Z" transform="translate(-2267.781 -597.464)" fill="#c1775d"/>
      <path id="Path_153" data-name="Path 153" d="M3295.806,782.471a2.435,2.435,0,0,1-1.412-4.418,64.713,64.713,0,0,1,9.851-5.816c.753-.361,1.546-.8,2.388-1.263,3.738-2.06,8.854-4.883,13.211-1.245,3.968,3.312,1.543,7.989.507,9.986a2.434,2.434,0,0,1-4.322-2.24c1.539-2.968,1.243-3.553.7-4.009-1.68-1.4-4.047-.267-7.742,1.771-.863.476-1.755.968-2.631,1.389a59.162,59.162,0,0,0-9.138,5.4A2.423,2.423,0,0,1,3295.806,782.471Z" transform="translate(-2297.293 -605.376)" fill="#8e473d"/>
      <path id="Path_154" data-name="Path 154" d="M3334.4,785.22,3311.355,803.2a1.587,1.587,0,0,0-.286,2.215l25.328,33a1.588,1.588,0,0,0,2.232.293l14-10.81Z" transform="translate(-2308.162 -616.165)" fill="#313438"/>
      <path id="Path_155" data-name="Path 155" d="M3317.645,867.464a2.437,2.437,0,0,1-2.4-2.868c.957-5.286-1.2-15.244-4.805-22.2a2.434,2.434,0,1,1,4.321-2.241c4.165,8.03,6.433,18.909,5.274,25.306A2.434,2.434,0,0,1,3317.645,867.464Z" transform="translate(-2307.803 -649.712)" fill="#8e473d"/>
      <path id="Path_156" data-name="Path 156" d="M3264.247,962.27c42.7,10.65,57.059,35.857,63.719,59.632,5.344,19.082,7.518,41.441,9.285,60.328,3.56,38.044,3.682,61.38,2.852,73.2-1,14.2-7.314,23.7-19.977,24.328-12.34.612-42.594,4.159-72.707,1.241H3141.244c-.2-20.158-.977-50.917-2.81-60.287-2.838-14.507-9.287-27.217-12.469-40.046-20.758,11.87-51.616,28.245-68.718,28.177-19.872-.079-30.506-10.607-32.4-24.585-1.234-9.079-1.521-32.169,13.745-51.2s68.5-86.942,68.5-86.942l30.2,31.755,9.976-11.262a277.281,277.281,0,0,1,30.623-4.185s49.108.672,59.22.672S3264.247,962.27,3264.247,962.27Z" transform="translate(-2128.976 -716.82)" fill="#59317c"/>
      <path id="Path_157" data-name="Path 157" d="M3368.986,569.059c-12.195-25.6-7.236-60.705,28.743-67.1,37.676-22.305,69.4-8.918,87.344,12.194,23.217,27.312,24.485,94.178-23.871,111.811Z" transform="translate(-2340.857 -431.751)" fill="#282a2d"/>
      <path id="Path_158" data-name="Path 158" d="M3482.955,732.349s-3.787-1.392-4.917-1.986c-4.073-2.142-5.805-5.881-6.6-9.635-3.748-17.746-3.9-45.049-2.887-61.8.3.049.61.091.928.122a14.753,14.753,0,1,0-2.855-28.753c-13.2.757-51.779-28.185-58.693-51.7-13.2,5.576-28.65,18.389-31.219,34.184-1.17,14.525-2.626,33.8-2.767,41.413-.479,25.8,4.635,43.762,31.633,47.052.219.022,1.476.115,3.471.134a101.627,101.627,0,0,1-1.718,22.2,10.731,10.731,0,0,1-9.021,8.614l-1.717.306c-.706,11.637,3.284,26.37,11.635,36.284,49.517-9.918,74.725-36.435,74.725-36.435Z" transform="translate(-2347.686 -486.899)" fill="#c1775d"/>
      <path id="Path_159" data-name="Path 159" d="M3434.434,819.565a1.411,1.411,0,0,0-.978,1.939c1.88,5.121,8.753,7.611,16.682,5.551,7.567-1.966,9.678-7.188,9.548-11.8-.03-1-.629-1.624-1.512-1.364C3451.011,816.009,3441.672,817.931,3434.434,819.565Z" transform="translate(-2384.866 -634.068)" fill="#fff"/>
      <path id="Path_160" data-name="Path 160" d="M3635.75,739.963a2.438,2.438,0,0,1-2.422-2.718,5.108,5.108,0,0,0-1.257-4.247,4.979,4.979,0,0,0-4.138-1.365,2.434,2.434,0,1,1-.391-4.851,9.791,9.791,0,0,1,8.03,2.838,10.019,10.019,0,0,1,2.591,8.2A2.433,2.433,0,0,1,3635.75,739.963Z" transform="translate(-2504.955 -579.581)" fill="#8e473d"/>
      <path id="Path_161" data-name="Path 161" d="M3399.71,704.358c-.327,3.084-2.059,5.43-3.868,5.238s-3.012-2.847-2.686-5.932,2.059-5.43,3.867-5.238S3400.037,701.273,3399.71,704.358Z" transform="translate(-2359.689 -561.859)" fill="#313438"/>
      <ellipse id="Ellipse_43" data-name="Ellipse 43" cx="5.616" cy="3.295" rx="5.616" ry="3.295" transform="matrix(0.105, -0.994, 0.994, 0.105, 1078.252, 152.243)" fill="#313438"/>
      <path id="Path_162" data-name="Path 162" d="M3515.35,673.784a2.423,2.423,0,0,1-1.542-.553c-5.833-4.784-14.771-6.254-22.772-3.746a2.433,2.433,0,1,1-1.458-4.644c9.672-3.033,20.14-1.26,27.317,4.627a2.434,2.434,0,0,1-1.545,4.316Z" transform="translate(-2418.978 -539.944)" fill="#282a2d"/>
      <path id="Path_163" data-name="Path 163" d="M3431.27,718.537c-1.856,0-5.562-.556-7.8-2.728a5.506,5.506,0,0,1-1.747-4.011c0-3.29,2.188-5.078,4.118-6.656a21.329,21.329,0,0,0,2.77-2.562c3.407-3.948,4.846-13.117,1.552-20.477a2.434,2.434,0,0,1,4.443-1.988c3.8,8.484,2.782,19.749-2.313,25.647a25.556,25.556,0,0,1-3.371,3.149c-1.729,1.411-2.333,1.985-2.333,2.886,0,.1,0,.259.271.522.954.926,3.27,1.385,4.511,1.352a2.433,2.433,0,1,1,.139,4.865C3431.434,718.535,3431.355,718.537,3431.27,718.537Z" transform="translate(-2377.594 -549.509)" fill="#8e473d"/>
      <path id="Path_164" data-name="Path 164" d="M3611.564,786.967a2.456,2.456,0,0,1-.479-.048,16.454,16.454,0,0,1-6.75-3.015,2.433,2.433,0,0,1,2.93-3.886,11.639,11.639,0,0,0,4.77,2.127,2.434,2.434,0,0,1-.471,4.821Z" transform="translate(-2491.232 -612.604)" fill="#8e473d"/>
      <path id="Path_165" data-name="Path 165" d="M3672.435,1363.551a2.432,2.432,0,0,1-2.425-2.272l-7.111-107.552a2.434,2.434,0,1,1,4.857-.321l7.112,107.553a2.435,2.435,0,0,1-2.27,2.589C3672.542,1363.55,3672.49,1363.551,3672.435,1363.551Z" transform="translate(-2528.472 -907.639)" fill="#59317c" style="mix-blend-mode: multiply;isolation: isolate"/>
      <path id="Path_166" data-name="Path 166" d="M3671.086,635.963a2.433,2.433,0,0,1-1.833-4.033c26.449-30.325,21.742-73.886,2.216-96.854a70.7,70.7,0,0,0-7.977-8,2.434,2.434,0,0,1,3.159-3.7,75.644,75.644,0,0,1,8.525,8.547c10.387,12.218,16.638,29.737,17.151,48.065a80.09,80.09,0,0,1-19.4,55.141A2.429,2.429,0,0,1,3671.086,635.963Z" transform="translate(-2528.309 -451.991)" fill="#fff"/>
      <path id="Path_167" data-name="Path 167" d="M3288.38,1188.023a2.434,2.434,0,0,1-2.369-1.885,56.088,56.088,0,0,1-1.582-15.078,97.245,97.245,0,0,1,3.531-21.761c2.861-10.481,6.959-20.328,12.022-32.112a2.435,2.435,0,0,1,4.474,1.921c-4.987,11.607-9.023,21.294-11.8,31.472a92.4,92.4,0,0,0-3.365,20.681,51.284,51.284,0,0,0,1.46,13.779,2.437,2.437,0,0,1-2.373,2.984Z" transform="translate(-2291.679 -822.922)" fill="#59317c" style="mix-blend-mode: multiply;isolation: isolate"/>
      <path id="Path_168" data-name="Path 168" d="M3208.363,1109.02a2.434,2.434,0,0,1-2-3.811c.419-.609,39.858-58.125,48.215-72.067-1.5-1.211-3.312-2.737-5.27-4.445a2.433,2.433,0,1,1,3.2-3.668c2.686,2.343,5.068,4.319,6.706,5.565l1.659,1.264-.994,1.833c-5.4,9.961-47.7,71.649-49.5,74.271A2.433,2.433,0,0,1,3208.363,1109.02Z" transform="translate(-2242.597 -765.814)" fill="#59317c" style="mix-blend-mode: multiply;isolation: isolate"/>
      <path id="Path_169" data-name="Path 169" d="M3464.981,899.663h-.356a2.434,2.434,0,0,1,.011-4.868h.013a76.51,76.51,0,0,0,21.864-3.035,2.433,2.433,0,1,1,1.422,4.654A81.32,81.32,0,0,1,3464.981,899.663Z" transform="translate(-2402.917 -682.75)" fill="#8e473d"/>
      <path id="Path_170" data-name="Path 170" d="M3391.685,658.854a2.429,2.429,0,0,1-1.159-.3c-5.652-3.067-12.776-3.431-18.146-.925a2.434,2.434,0,1,1-2.058-4.411,25.521,25.521,0,0,1,22.525,1.058,2.434,2.434,0,0,1-1.161,4.574Z" transform="translate(-2344.559 -532.254)" fill="#282a2d"/>
      <path id="Path_171" data-name="Path 171" d="M3377.583,851.554H2927.355a8.82,8.82,0,0,1-8.812-8.81V422.032a8.821,8.821,0,0,1,8.812-8.81h450.229a8.821,8.821,0,0,1,8.811,8.81V842.744A8.821,8.821,0,0,1,3377.583,851.554Zm-450.229-430.47a.949.949,0,0,0-.948.948V842.744a.949.949,0,0,0,.948.948h450.229a.949.949,0,0,0,.948-.948V422.032a.949.949,0,0,0-.948-.948Z" transform="translate(-2062.804 -383.443)" fill="#dbdbdb"/>
      <path id="Path_172" data-name="Path 172" d="M3814.354,614.055h-7.862V359.9a18.372,18.372,0,0,0-18.351-18.351h-244.8v-7.862h244.8a26.244,26.244,0,0,1,26.213,26.214Z" transform="translate(-2453.679 -333.684)" fill="#dbdbdb"/>
    </g>
    <g id="Group_196" data-name="Group 196" transform="translate(-8628.622 911.988)">
      <path id="Path_110-2" data-name="Path 110" d="M871.364,2821.944a.248.248,0,0,1-.052.329,47.358,47.358,0,0,1-20.7,13.107c-2.521.784-2.431-2.662-4.988-2.289-3.2.466-7.023,3.351-10.258,3.371-2.6.017-.479-14.063-3.044-14.277-18.791-7.265-22.273-10.488-32.484-13.918C816.448,2798.12,843.87,2790.378,871.364,2821.944Z" transform="translate(-695.451 -2213.34)" fill="#3dcf9e"/>
      <path id="Path_111-2" data-name="Path 111" d="M713.43,2438.1c-70.91,4.209-70.9-67.045-70.9-67.045S722.923,2374.2,713.43,2438.1Z" transform="translate(-597.076 -1945.474)" fill="#3dcf9e"/>
      <path id="Path_112-2" data-name="Path 112" d="M887.97,2495.042a.087.087,0,0,0,.158.053c24.7-31.6,33.557-45.355,29.3-66.747-5.52-27.717-25.741-35.869-25.741-35.869s-22.1,23.965-20.5,47.979C872.679,2462.845,888.608,2484.4,887.97,2495.042Z" transform="translate(-740.021 -1958.87)" fill="#3dcf9e"/>
      <path id="Path_113-2" data-name="Path 113" d="M756.417,2630.529c.277-.176.465-.448.256-.7-18.782-22.761-39.672-35.582-63.452-34.134-24.61,1.5-38.413,23.593-38.413,23.593S719.433,2654.078,756.417,2630.529Z" transform="translate(-604.754 -2085.886)" fill="#3dcf9e"/>
      <path id="Path_114-2" data-name="Path 114" d="M977.7,2676.832a.616.616,0,0,1-.661-.629c-2.488-61.574,48-80.621,48-80.621s19.793,17.746-2.532,53.059C1002.057,2681,982.616,2676.313,977.7,2676.832Z" transform="translate(-806.213 -2085.887)" fill="#3dcf9e"/>
      <path id="Path_115-2" data-name="Path 115" d="M997.823,2918.5c-.248-.1-.25-.366-.166-.616,13.632-40.648,67.065-28.72,67.065-28.72s22.145,13.25-10.132,26.642C1024.934,2928.106,1001.442,2919.91,997.823,2918.5Z" transform="translate(-819.133 -2268.466)" fill="#ffdd70"/>
      <path id="Path_116-2" data-name="Path 116" d="M884.221,2753.3l-4.755-1.053c17-76.753-2.25-146.735-57.213-208l3.625-3.252c26.819,29.893,45.514,62.513,55.567,96.957C892.13,2674.558,893.064,2713.368,884.221,2753.3Z" transform="translate(-709.471 -2051.746)" fill="#3dcf9e"/>
      <path id="Path_123" data-name="Path 123" d="M1660.72,3108.248H523.633a2.435,2.435,0,0,1,0-4.871H1660.72a2.435,2.435,0,0,1,0,4.871Z" transform="translate(-521.198 -2403.453)" fill="#2e2e2e"/>
      <path id="Path_124" data-name="Path 124" d="M1728.023,2654.4s-11.259-4.222-11.259-11.612-.352-15.833,30.612-15.13,225.547-.117,225.547-.117l59.113-232.818s-2.815-13.723,15.248-13.723,256.171.789,346.281.319c3.7-.02,8.537,4.006,8.3,11.043s-62.536,256.76-62.536,256.76a14.879,14.879,0,0,1-8.209,4.458C2326.2,2654.287,1728.023,2654.4,1728.023,2654.4Z" transform="translate(-1268.88 -1951.694)" fill="#59317c"/>
      <ellipse id="Ellipse_37" data-name="Ellipse 37" cx="34.717" cy="28.427" rx="34.717" ry="28.427" transform="translate(878.765 593.121) rotate(-60)" fill="#fff"/>
      <ellipse id="Ellipse_38" data-name="Ellipse 38" cx="28.47" cy="38.239" rx="28.47" ry="38.239" transform="translate(514.704 117.672) rotate(-2.419)" fill="url(#linear-gradient)"/>
      <ellipse id="Ellipse_39" data-name="Ellipse 39" cx="28.47" cy="38.239" rx="28.47" ry="38.239" transform="matrix(0.999, -0.042, 0.042, 0.999, 514.33, 117.672)" fill="#59317c"/>
      <path id="Path_125" data-name="Path 125" d="M1369.474,1396.64c3.373,38.169,21.014,84.995,26.1,89.162,5.109,4.167,38.087,17.275,60.755,20.376s146.506,2.664,146.506,2.664a.077.077,0,0,1,.024-.049c.7-1.165,11.879-20.461,11.335-46.925-.6-27.281-8.83-59.127-8.359-70.66s9.6-52.182,10.318-71.875c.694-19.667-7.738-32.317-17.387-47.818-9.622-15.476-37.723-26.067-39.707-26.91,0,0-26.464-4.339-38.492-7.565-3.795-1.016-10.441-1.735-18.576-1.959-3.72-.1-7.738-.1-11.9.025-15.7.4-33.879,2.431-47.521,7.02-25.247,8.482-53.4,38.641-60.168,57.267C1375.649,1318.042,1366.1,1358.47,1369.474,1396.64Z" transform="translate(-1051.255 -1235.009)" fill="#313438"/>
      <path id="Path_126" data-name="Path 126" d="M1633.057,1417.317a356.024,356.024,0,0,1,7.272,35.917c.091.61,3.729,43.266,3.089,60.521s-7.679,35.281-16.9,41.7-13.425,8.61-18.334,10.588c-4.287,1.727-23.665,4.4-23.665,4.4s-5.835,26.578.456,44.244c4.78,13.42,65.363,33.775,62.25,34.661-39.955,11.383-91.574,6.169-119.583,3.046-15.087-1.683-91.372-12.716-99.665-22.448-1.083-3.455,25.754-11.691,40.16-16.248,9.061-2.867,13.385-10.366,15.5-13.213,24.8,4.9,44.72,2.032,42.747,1.582-21.24-31.624-27.93-88.346-28.854-95.429s9.249-40.547,9.249-40.547,48.623-3.6,86.282-77.761C1612.423,1394.438,1626.188,1401.447,1633.057,1417.317Z" transform="translate(-1088.265 -1330.89)" fill="#f4cead"/>
      <path id="Path_127" data-name="Path 127" d="M979.769,2431.146h107.267l4.2-21.469,31.726-127.847c8.722,42.446-13.691,147.765-14.013,150.244l150.215-2.168s-4.465-12.128.943-20.387c5.431-8.234,24.727-3.893,35.317-3.893,10.615,0,78.795-.819,78.795-.819s2.406-15.2,3.273-25.1c.869-9.922,5.557-17.983,8.384-33.758,2.8-15.8,19-58.033,19-58.033a119.684,119.684,0,0,0,26.291,26.213c14.707,10.367,37.276,28.2,51.933,33.384a31.269,31.269,0,0,0,3.125.918,2.968,2.968,0,0,0,.5.124c1.015.246,1.958.495,2.851.718,10.045,2.779,12.278,5.259,26.539.2a.632.632,0,0,1,.173-.049c1.686-.6,3.547-1.314,5.6-2.133.05-.025.075-.049.124-.049a23.6,23.6,0,0,0,2.529-1.241c11.062-6.423,29.614-27.753,47.273-51.562,19.569-26.439,38.045-55.9,43.9-71.43,3.744-9.945,11.012-25.4,19.1-41.714,13.443-27.11,29.167-56.623,34.921-67.363,1.439-2.677,2.256-4.192,2.256-4.192l-112.549-41.517s-11.434,26.537-15.65,34.97c-.4.769-.793,1.563-1.215,2.356-8.21,15.4-46.18,83.233-46.826,84.349v.026l-.148-.222c-3.175-4.391-54.218-74.926-69.52-93.2-.149-.175-.273-.323-.421-.5-.05-.074-.124-.123-.174-.2a162.2,162.2,0,0,0-12.277-12.7,7.743,7.743,0,0,1-.67-.618c-15.674-14.559-34.672-28.1-42.683-33.608l-.025-.024c-2.406-1.662-3.82-2.6-3.82-2.6l-.768.148-14.361,2.778-1.24.248s-7.962,1.537-16.865,2.876a2.108,2.108,0,0,1-.571.075c-5.184.769-10.615,1.464-14.955,1.761-1.909.148-4.365.2-7.243.2h-.073c-15.427.049-42.388-1.488-53.7-3-13.467-1.763-37.624-5.431-47.1-7.665-8.482-1.982-38.616-10.218-54.092-16.169-1.86-.7-3.5-1.39-4.861-2.011a234.555,234.555,0,0,0-38.219,20.19c-17.212,11.458-29.812,24.875-39.435,36.16a.728.728,0,0,0-.125.173c-1.711,2.01-3.3,3.918-4.812,5.755a86.172,86.172,0,0,0-7.168,11.21.085.085,0,0,0-.024.049c-8.209,14.609-19.271,38.244-27.207,56.649a.841.841,0,0,0-.124.321c-3.82,8.83-6.871,16.42-8.557,21.206C1003.951,2235.609,979.769,2431.146,979.769,2431.146Z" transform="translate(-807.977 -1729.361)" fill="#1daabf"/>
      <path id="Path_128" data-name="Path 128" d="M1724.376,1235.2c8.135.223,14.781.942,18.576,1.959,12.028,3.224,38.491,7.564,38.491,7.564,1.985.844,30.086,11.434,39.708,26.91,9.648,15.5,18.081,28.149,17.386,47.817-.719,19.693-9.846,60.342-10.317,71.875s7.763,43.378,8.357,70.66c.546,26.464-10.64,45.759-11.334,46.924.272.025.421.05.421.05s11.929-19.668,11.334-46.974c-.57-27.282-8.829-59.127-8.358-70.66s9.624-52.182,10.318-71.875c.719-19.668-7.713-32.317-17.361-47.817-9.648-15.476-37.723-26.066-39.707-26.91,0,0-26.489-4.34-38.491-7.564C1739.529,1236.117,1732.709,1235.4,1724.376,1235.2Z" transform="translate(-1273.64 -1235.129)" fill="#313438"/>
      <path id="Path_129" data-name="Path 129" d="M1538.832,1630.89a25.543,25.543,0,1,1,9.261-49.364,2.435,2.435,0,1,1-1.763,4.539,20.674,20.674,0,1,0,2.119,37.6,2.435,2.435,0,1,1,2.263,4.313,25.34,25.34,0,0,1-10.859,2.892C1539.513,1630.884,1539.171,1630.89,1538.832,1630.89Z" transform="translate(-1141.651 -1450.637)" fill="#2e2e2e"/>
      <path id="Path_130" data-name="Path 130" d="M1546.218,1625.675a2.435,2.435,0,0,1-2.431-2.311,14.324,14.324,0,0,1,4.451-11.45,14.01,14.01,0,0,1,11.721-3.256,2.435,2.435,0,0,1-.716,4.818,9.229,9.229,0,0,0-7.733,2.045,9.487,9.487,0,0,0-2.86,7.6,2.435,2.435,0,0,1-2.309,2.555C1546.3,1625.675,1546.26,1625.675,1546.218,1625.675Z" transform="translate(-1160.694 -1468.567)" fill="#2e2e2e"/>
      <ellipse id="Ellipse_40" data-name="Ellipse 40" cx="5.161" cy="8.797" rx="5.161" ry="8.797" transform="translate(526.906 123.332) rotate(-2.236)" fill="#2e2e2e"/>
      <ellipse id="Ellipse_41" data-name="Ellipse 41" cx="5.161" cy="8.797" rx="5.161" ry="8.797" transform="translate(454.469 126.249) rotate(-2.237)" fill="#2e2e2e"/>
      <path id="Path_131" data-name="Path 131" d="M1855.3,1604.6l-.191,0a2.435,2.435,0,1,1,.135-4.868,12.4,12.4,0,0,0,7.217-3.263,4.29,4.29,0,0,0,1.551-2.969c0-2.726-1.439-4.158-4.688-7.142-1.03-.945-2.2-2.016-3.411-3.266-5.3-5.452-11.345-15.351-10.05-31.561a2.435,2.435,0,1,1,4.855.388c-.91,11.39,2.093,20.995,8.686,27.778,1.118,1.151,2.183,2.129,3.212,3.072,3.359,3.084,6.26,5.749,6.265,10.728a9.022,9.022,0,0,1-3.024,6.461A17.21,17.21,0,0,1,1855.3,1604.6Z" transform="translate(-1349.507 -1431.556)" fill="#2e2e2e"/>
      <path id="Path_132" data-name="Path 132" d="M1802.017,1755.983c-8.789-2.2-13.477-6.987-15.439-13.718-1.5-5.146-1.326-7.841.958-8.982,2.888-1.44,9.544,1.367,19.8,4.351,7.487,2.178,18.695,2.559,18.992,8.265C1826.585,1750.814,1815.972,1759.483,1802.017,1755.983Z" transform="translate(-1311.933 -1546.378)" fill="#fff"/>
      <path id="Path_133" data-name="Path 133" d="M1792.092,1760.49c8.632-5.951,21.449-3.091,21.523,9.261C1804.238,1770.316,1793.808,1764.376,1792.092,1760.49Z" transform="translate(-1315.992 -1561.767)" fill="#fff"/>
      <path id="Path_134" data-name="Path 134" d="M1802.117,1753.624c-8.789-2.2-13.477-6.987-15.44-13.718-1.5-5.146-1.325-7.842.958-8.981,2.888-1.441,9.545,1.367,19.8,4.351,7.488,2.178,18.7,2.558,18.993,8.265C1826.685,1748.455,1816.072,1757.124,1802.117,1753.624Z" transform="translate(-1311.997 -1544.902)" fill="#fff"/>
      <path id="Path_135" data-name="Path 135" d="M1792.092,1758.174c6.623-8.044,23.942-5.191,22.249,10.124Z" transform="translate(-1315.992 -1559.449)" fill="#fff"/>
      <path id="Path_136" data-name="Path 136" d="M1638.887,1412.033a2.435,2.435,0,0,1-.441-4.83c42.789-7.914,87.373-54.937,82.993-106.024a2.435,2.435,0,0,1,4.853-.416c2.171,25.316-6.69,51.245-24.945,73.012a121.382,121.382,0,0,1-28.818,25,98.3,98.3,0,0,1-33.2,13.222A2.383,2.383,0,0,1,1638.887,1412.033Z" transform="translate(-1218.657 -1274.737)" fill="#2e2e2e"/>
      <path id="Path_137" data-name="Path 137" d="M2797.329,2381.005H2475.786c-6.477,0-9.83,4.4-11.729,11.689l-58.2,234.623Z" transform="translate(-1699.829 -1951.694)" fill="#59317c"/>
      <path id="Path_138" data-name="Path 138" d="M1974.123,3040.239H1730.977c-9.088.05-14.918,5.878-14.918,13.068h0a13.019,13.019,0,0,0,13.019,13.021h227.188Z" transform="translate(-1268.438 -2363.967)" fill="#421f60"/>
      <path id="Path_139" data-name="Path 139" d="M2594.973,1855.043s4.236-15.348,6.634-18.944,15.349-13.188,19.264-15.666,18.507-20.263,21.923-27.738,20.249-34.81,19.721-35.649,12.929-19.009,15.919-22.755,13.972-13.056,15.822-20.624c3.005-12.3-3.537-13.112-9.51-11.657a26.869,26.869,0,0,0-11.813,6.553l-18.17,16.884s20.413-29.336,23.832-34.474c12.131-18.23.143-27.323-5.749-24.223-3.918,2.063-23.559,26.931-23.559,26.931l-11.07,14.925-1.6-3.276s6.069-27.694,6.11-27.927,4.943-23.776,1.421-26.978-9.284-6.182-13.389-4.743-13.6,30.36-13.6,30.36l-7,21.815-2.18-2.991s.217-16.11-6.717-20.208a70.41,70.41,0,0,0-21.1-7.86c-11.766-2.616-24.307-1.195-26.305.723s-1.9,6.735-.778,8.892,1.376,2.829,8.9,7.992c4.695,3.223,20.3,8.375,20.3,8.375s-7.926,20.544-11.124,27.418-5.435,13.508-5.673,13.428-5.529-14.326-6.795-18.3-7.393-15.168-13.807-16.779-8.415-2.012-11.293,3.024a26.7,26.7,0,0,0-2.157,19.448c1.9,6.84,7.994,33,7.994,34.753s-1.12,20.615-.881,27.33,5.516,14.867,5.516,14.867l-1.21,1.33s-.885,15.329-2.954,19.308-4.787,13.774-4.787,13.774Z" transform="translate(-1777.78 -1491.603)" fill="#f4cead"/>
      <path id="Path_140" data-name="Path 140" d="M2736.736,1883.657a2.435,2.435,0,0,1-2.052-1.119c-9.812-15.267-34.334-28.47-37.75-29.638a2.434,2.434,0,1,1,1.574-4.607c5.245,1.792,30.128,15.832,40.273,31.612a2.436,2.436,0,0,1-2.046,3.753Z" transform="translate(-1880.836 -1618.463)" fill="#e0a26c"/>
      <path id="Path_141" data-name="Path 141" d="M2660.063,1771.042a2.4,2.4,0,0,1-.7-.1,112.481,112.481,0,0,1-14.006-5.389,2.435,2.435,0,1,1,2.074-4.406,110.255,110.255,0,0,0,13.329,5.131,2.436,2.436,0,0,1-.7,4.769Z" transform="translate(-1848.734 -1563.898)" fill="#e0a26c"/>
      <path id="Path_142" data-name="Path 142" d="M2033.876,2612.817a2.436,2.436,0,0,1-2.432-2.376c-.444-17.937,2.664-49.4,12.878-79.02,3.58-10.381,7.717-20.113,11.718-29.526,8.2-19.3,15.95-37.532,17.09-57.406,1.26-21.983-6.5-43.235-14.714-65.736-2.693-7.376-5.478-15.006-7.881-22.585a2.435,2.435,0,0,1,4.643-1.473c2.372,7.482,5.137,15.058,7.813,22.386,8.025,21.978,16.32,44.7,15,67.686-1.187,20.721-9.1,39.331-17.471,59.033-3.968,9.334-8.072,18.988-11.6,29.208-10,29.011-13.047,59.781-12.614,77.313a2.435,2.435,0,0,1-2.375,2.493A.564.564,0,0,1,2033.876,2612.817Z" transform="translate(-1465.654 -1934.179)" fill="#1daabf" style="mix-blend-mode: multiply;isolation: isolate"/>
      <path id="Path_143" data-name="Path 143" d="M2659.41,1977.913a2.436,2.436,0,0,1-1.764-4.115c9.76-10.243,9.711-28.137-.1-39.89a2.435,2.435,0,0,1,3.738-3.122,37.248,37.248,0,0,1,8.514,23.279,32.417,32.417,0,0,1-8.619,23.091A2.431,2.431,0,0,1,2659.41,1977.913Z" transform="translate(-1856.876 -1669.589)" fill="#e0a26c"/>
      <ellipse id="Ellipse_42" data-name="Ellipse 42" cx="34.717" cy="28.427" rx="34.717" ry="28.427" transform="translate(878.765 593.121) rotate(-60)" fill="#fff"/>
      <path id="Path_144" data-name="Path 144" d="M1522.743,1355.452c.821-48.577,19.126-88.367,56.793-108.162,14.154-7.438,30.464-8.768,50.9-4.262,0,0,8.745,3.79,16.942,7.287-21.611-1.443-35.484-.545-48.976,6.815-45.014,24.552-59.06,66.874-62.39,99.96,10.378,4.525,19.013,16.286,21.568,31.169,3.573,20.814-6.093,39.844-21.589,42.5s-30.956-12.055-34.53-32.868C1497.906,1377.217,1507.425,1358.308,1522.743,1355.452Z" transform="translate(-1133.768 -1238.401)" fill="#59317c"/>
      <path id="Path_145-2" data-name="Path 145" d="M1296.891,3107.925l33.11-.223v-.026Z" transform="translate(-1006.299 -2406.142)" fill="#3a91f9"/>
      <path id="Path_146" data-name="Path 146" d="M1350.739,2589.426a2.378,2.378,0,0,1-.623-.083,2.433,2.433,0,0,1-1.733-2.974c6.851-25.948,15.1-51.843,24.516-76.973a2.435,2.435,0,0,1,4.56,1.71c-9.359,24.975-17.558,50.716-24.366,76.5A2.439,2.439,0,0,1,1350.739,2589.426Z" transform="translate(-1038.449 -2031)" fill="#1daabf" style="mix-blend-mode: multiply;isolation: isolate"/>
      <path id="Path_147" data-name="Path 147" d="M2785.859,1824.73a2.434,2.434,0,0,1-1.834-4.035l10.526-12.087a2.436,2.436,0,0,1,3.674,3.2l-10.529,12.088A2.429,2.429,0,0,1,2785.859,1824.73Z" transform="translate(-1935.953 -1593.205)" fill="#e0a26c"/>
      <path id="Path_148" data-name="Path 148" d="M2809.032,1855.487a2.434,2.434,0,0,1-1.691-4.187l27.694-26.713a2.435,2.435,0,0,1,3.38,3.506l-27.694,26.713A2.428,2.428,0,0,1,2809.032,1855.487Z" transform="translate(-1950.44 -1603.294)" fill="#e0a26c"/>
      <path id="Path_149" data-name="Path 149" d="M1777.286,1860.288a120.119,120.119,0,0,1-24.787-2.536,2.436,2.436,0,0,1,1.066-4.753,113.977,113.977,0,0,0,31.347,2.116,2.435,2.435,0,1,1,.417,4.853C1782.821,1860.183,1780.1,1860.288,1777.286,1860.288Z" transform="translate(-1290.039 -1621.451)" fill="#e0a26c"/>
      <path id="Path_150" data-name="Path 150" d="M1637.548,1735.7c-17.277,0-31.4-4.271-42.133-12.763a51.7,51.7,0,0,1-18.929-32.664l4.844-.5-2.422.248,2.422-.252a47.631,47.631,0,0,0,17.174,29.4c12.784,10.079,31.059,13.649,54.315,10.609l.631,4.829A123.05,123.05,0,0,1,1637.548,1735.7Z" transform="translate(-1181.151 -1519.409)" fill="#59317c"/>
      <rect id="Rectangle_35" data-name="Rectangle 35" width="28.823" height="28.823" rx="2.294" transform="translate(459.171 199.072) rotate(-11.179)" fill="#59317c"/>
    </g>
  </g>
</svg>
