<?xml version="1.0" encoding="UTF-8"?>
<svg xmlns="http://www.w3.org/2000/svg" xmlns:xlink="http://www.w3.org/1999/xlink" width="566px" height="408px" viewBox="0 0 566 408" version="1.1">
  <title>illustration-block-support</title>
  <defs>
    <path d="M18.1728095,247.887574 L195.060679,349.586133 C216.729262,362.181496 250.315566,363.548993 269.38392,352.609021 L457.178309,244.648766 C476.174434,233.708794 473.790889,214.635816 451.833392,201.968479 L274.728837,100.413867 C252.69911,87.8185036 219.473949,86.451007 200.405596,97.3909794 L12.6112065,205.351234 C-6.09600386,216.147259 -3.7846883,235.220237 18.1728095,247.887574 Z" id="path-1"></path>
    <filter x="-15.3%" y="-26.7%" width="130.6%" height="153.3%" id="filter-2">
      <feOffset dx="0" dy="0" in="SourceAlpha" result="shadowOffsetOuter1"></feOffset>
      <feGaussianBlur stdDeviation="24" in="shadowOffsetOuter1" result="shadowBlurOuter1"></feGaussianBlur>
      <feColorMatrix values="0 0 0 0 0.215686275   0 0 0 0 0.560784314   0 0 0 0 0.749019608  0 0 0 0.15 0" type="matrix" in="shadowBlurOuter1"></feColorMatrix>
    </filter>
  </defs>
  <g id="Customer-Care" stroke="none" stroke-width="1" fill="none" fill-rule="evenodd">
    <g transform="translate(-787.000000, -900.000000)" id="illustration-block-support">
      <g transform="translate(835.000000, 900.000000)">
        <rect id="Rectangle" x="0" y="0" width="470" height="390"></rect>
        <g id="Path-Copy-78">
          <use fill="black" fill-opacity="1" filter="url(#filter-2)" xlink:href="#path-1"></use>
          <use fill="#FFFFFF" fill-rule="evenodd" xlink:href="#path-1"></use>
        </g>
        <g id="Group-362" transform="translate(78.606262, 0.000000)">
          <g id="Group-361" transform="translate(-0.000000, 0.000000)">
            <polygon id="Fill-19" fill="#CAF1FF" points="229.888697 222.09656 327.87017 165.526852 229.891337 108.959784 131.910744 165.528612"></polygon>
            <polygon id="Fill-21" fill="#B4E4F9" points="229.890369 262.825624 327.870962 206.256796 327.870962 165.527908 229.890369 222.097616"></polygon>
            <polygon id="Fill-23" fill="#A7DBF2" points="131.955096 206.22142 229.935689 262.790248 229.935689 222.06224 131.955096 165.492532"></polygon>
            <path d="M282.817419,208.477203 C282.817419,210.281196 284.083734,211.012474 285.646608,210.110477 C287.209483,209.208481 288.475798,207.014649 288.475798,205.209775 C288.475798,203.405782 287.209483,202.674505 285.646608,203.576502 C284.083734,204.478498 282.817419,206.67233 282.817419,208.477203" id="Fill-25" fill="#7AB9DD"></path>
            <path d="M276.174412,219.982544 C276.174412,221.787417 277.440727,222.518695 279.003601,221.615818 C280.566475,220.713821 281.833671,218.51999 281.833671,216.715116 C281.833671,214.911123 280.566475,214.179846 279.003601,215.082723 C277.440727,215.984719 276.174412,218.178551 276.174412,219.982544" id="Fill-27" fill="#7AB9DD"></path>
            <path d="M269.28571,216.289814 C269.28571,218.093807 270.552025,218.825084 272.114899,217.923088 C273.677773,217.021091 274.944089,214.827259 274.944089,213.022386 C274.944089,211.218393 273.677773,210.487116 272.114899,211.389112 C270.552025,212.291109 269.28571,214.484941 269.28571,216.289814" id="Fill-29" fill="#7AB9DD"></path>
            <path d="M262.642791,227.795067 C262.642791,229.59994 263.909106,230.331217 265.47198,229.428341 C267.034854,228.526344 268.301169,226.332512 268.301169,224.528519 C268.301169,222.723646 267.034854,221.992369 265.47198,222.895245 C263.909106,223.797242 262.642791,225.991074 262.642791,227.795067" id="Fill-31" fill="#7AB9DD"></path>
            <path d="M255.753648,224.102337 C255.753648,225.90721 257.019964,226.638487 258.582838,225.735611 C260.145712,224.833614 261.412907,222.639782 261.412907,220.834909 C261.412907,219.030916 260.145712,218.299638 258.582838,219.201635 C257.019964,220.103632 255.753648,222.297463 255.753648,224.102337" id="Fill-33" fill="#7AB9DD"></path>
            <path d="M249.110641,235.60759 C249.110641,237.412463 250.376957,238.14374 251.939831,237.240864 C253.502705,236.338867 254.7699,234.145035 254.7699,232.341042 C254.7699,230.536169 253.502705,229.804891 251.939831,230.707768 C250.376957,231.609765 249.110641,233.803596 249.110641,235.60759" id="Fill-35" fill="#7AB9DD"></path>
            <path d="M242.221939,231.914859 C242.221939,233.719733 243.488254,234.45101 245.051128,233.548133 C246.614003,232.646137 247.880318,230.452305 247.880318,228.647432 C247.880318,226.843438 246.614003,226.112161 245.051128,227.015038 C243.488254,227.916154 242.221939,230.109986 242.221939,231.914859" id="Fill-37" fill="#7AB9DD"></path>
            <path d="M304.143083,199.591349 C304.143083,204.316931 307.460671,206.231804 311.552655,203.869013 C315.64464,201.507101 318.962228,195.760723 318.962228,191.035141 C318.962228,186.310438 315.64464,184.395565 311.552655,186.758357 C307.460671,189.121148 304.143083,194.866646 304.143083,199.591349" id="Fill-39" fill="#7AB9DD"></path>
            <polygon id="Fill-41" fill="#7AB9DD" points="229.936393 262.813568 319.956536 210.839202 319.956536 220.866765 229.936393 272.84113 139.91537 220.866765 139.91537 210.839202"></polygon>
            <polygon id="Fill-43" fill="#CAF1FF" points="229.888697 167.616668 327.87017 111.04696 229.891337 54.479892 131.910744 111.04872"></polygon>
            <polygon id="Fill-45" fill="#B4E4F9" points="229.890369 208.345732 327.870962 151.776904 327.870962 111.048016 229.890369 167.617724"></polygon>
            <polygon id="Fill-47" fill="#A7DBF2" points="131.955096 151.741528 229.935689 208.311236 229.935689 167.582348 131.955096 111.01352"></polygon>
            <path d="M282.817419,153.997399 C282.817419,155.802273 284.083734,156.53355 285.646608,155.630673 C287.209483,154.728677 288.475798,152.534845 288.475798,150.729972 C288.475798,148.925978 287.209483,148.194701 285.646608,149.097578 C284.083734,149.998694 282.817419,152.192526 282.817419,153.997399" id="Fill-49" fill="#7AB9DD"></path>
            <path d="M276.174412,165.502652 C276.174412,167.307525 277.440727,168.038803 279.003601,167.135926 C280.566475,166.233929 281.833671,164.040098 281.833671,162.236104 C281.833671,160.431231 280.566475,159.699954 279.003601,160.602831 C277.440727,161.504827 276.174412,163.698659 276.174412,165.502652" id="Fill-51" fill="#7AB9DD"></path>
            <path d="M269.28571,161.809922 C269.28571,163.614795 270.552025,164.346073 272.114899,163.443196 C273.677773,162.541199 274.944089,160.347367 274.944089,158.542494 C274.944089,156.738501 273.677773,156.007224 272.114899,156.9101 C270.552025,157.811217 269.28571,160.005049 269.28571,161.809922" id="Fill-53" fill="#7AB9DD"></path>
            <path d="M262.642791,173.315175 C262.642791,175.120048 263.909106,175.851325 265.47198,174.948449 C267.034854,174.046452 268.301169,171.85262 268.301169,170.048627 C268.301169,168.243754 267.034854,167.512477 265.47198,168.415353 C263.909106,169.31735 262.642791,171.511182 262.642791,173.315175" id="Fill-55" fill="#7AB9DD"></path>
            <path d="M255.753648,169.622445 C255.753648,171.427318 257.019964,172.158595 258.582838,171.255719 C260.145712,170.353722 261.412907,168.15989 261.412907,166.355017 C261.412907,164.551024 260.145712,163.819746 258.582838,164.722623 C257.019964,165.62374 255.753648,167.818452 255.753648,169.622445" id="Fill-57" fill="#7AB9DD"></path>
            <path d="M249.110641,181.128578 C249.110641,182.932571 250.376957,183.663848 251.939831,182.760972 C253.502705,181.858975 254.7699,179.665143 254.7699,177.86115 C254.7699,176.056277 253.502705,175.324999 251.939831,176.227876 C250.376957,177.129873 249.110641,179.323704 249.110641,181.128578" id="Fill-59" fill="#7AB9DD"></path>
            <path d="M242.221939,177.435056 C242.221939,179.239929 243.488254,179.971206 245.051128,179.068329 C246.614003,178.166333 247.880318,175.972501 247.880318,174.167628 C247.880318,172.363634 246.614003,171.632357 245.051128,172.535234 C243.488254,173.43723 242.221939,175.631062 242.221939,177.435056" id="Fill-61" fill="#7AB9DD"></path>
            <path d="M304.143083,145.111457 C304.143083,149.837039 307.460671,151.751912 311.552655,149.389121 C315.64464,147.027209 318.962228,141.280831 318.962228,136.556129 C318.962228,131.830546 315.64464,129.915673 311.552655,132.278465 C307.460671,134.641256 304.143083,140.386754 304.143083,145.111457" id="Fill-63" fill="#7AB9DD"></path>
            <polygon id="Fill-65" fill="#7AB9DD" points="229.936393 208.333764 319.956536 156.359398 319.956536 166.387841 229.936393 218.361326 139.91537 166.387841 139.91537 156.359398"></polygon>
            <polygon id="Fill-67" fill="#CAF1FF" points="229.888697 113.136776 327.87017 56.5679482 229.891337 0 131.910744 56.5697081"></polygon>
            <polygon id="Fill-69" fill="#B4E4F9" points="229.890369 153.86672 327.870962 97.2970116 327.870962 56.5690041 229.890369 113.137832"></polygon>
            <polygon id="Fill-71" fill="#A7DBF2" points="131.955096 97.2616358 229.935689 153.831344 229.935689 113.102456 131.955096 56.5336283"></polygon>
            <path d="M282.817419,99.5175073 C282.817419,101.322381 284.083734,102.053658 285.646608,101.150781 C287.209483,100.248785 288.475798,98.0549528 288.475798,96.2500795 C288.475798,94.4460863 287.209483,93.714809 285.646608,94.6176857 C284.083734,95.5188023 282.817419,97.7135141 282.817419,99.5175073" id="Fill-73" fill="#7AB9DD"></path>
            <path d="M276.174412,111.02364 C276.174412,112.827633 277.440727,113.558911 279.003601,112.656034 C280.566475,111.754917 281.833671,109.560206 281.833671,107.756212 C281.833671,105.951339 280.566475,105.220062 279.003601,106.122939 C277.440727,107.024935 276.174412,109.218767 276.174412,111.02364" id="Fill-75" fill="#7AB9DD"></path>
            <path d="M269.28571,107.33003 C269.28571,109.134903 270.552025,109.866181 272.114899,108.963304 C273.677773,108.061307 274.944089,105.867476 274.944089,104.063482 C274.944089,102.258609 273.677773,101.527332 272.114899,102.430208 C270.552025,103.332205 269.28571,105.526037 269.28571,107.33003" id="Fill-77" fill="#7AB9DD"></path>
            <path d="M262.642791,118.836163 C262.642791,120.640156 263.909106,121.371433 265.47198,120.468557 C267.034854,119.56744 268.301169,117.373608 268.301169,115.568735 C268.301169,113.763862 267.034854,113.032585 265.47198,113.935461 C263.909106,114.837458 262.642791,117.03129 262.642791,118.836163" id="Fill-79" fill="#7AB9DD"></path>
            <path d="M255.753648,115.142553 C255.753648,116.947426 257.019964,117.678703 258.582838,116.775827 C260.145712,115.87383 261.412907,113.679998 261.412907,111.876005 C261.412907,110.071132 260.145712,109.339855 258.582838,110.242731 C257.019964,111.144728 255.753648,113.33856 255.753648,115.142553" id="Fill-81" fill="#7AB9DD"></path>
            <path d="M249.110641,126.648686 C249.110641,128.452679 250.376957,129.183956 251.939831,128.28108 C253.502705,127.379963 254.7699,125.186131 254.7699,123.381258 C254.7699,121.576385 253.502705,120.845107 251.939831,121.747984 C250.376957,122.649981 249.110641,124.843812 249.110641,126.648686" id="Fill-83" fill="#7AB9DD"></path>
            <path d="M242.221939,122.955164 C242.221939,124.760037 243.488254,125.491314 245.051128,124.588437 C246.614003,123.686441 247.880318,121.492609 247.880318,119.688616 C247.880318,117.883743 246.614003,117.152465 245.051128,118.055342 C243.488254,118.957339 242.221939,121.15117 242.221939,122.955164" id="Fill-85" fill="#7AB9DD"></path>
            <path d="M304.143083,90.6324446 C304.143083,95.3571469 307.460671,97.2720197 311.552655,94.9092286 C315.64464,92.5473174 318.962228,86.8009389 318.962228,82.0762366 C318.962228,77.3506543 315.64464,75.4357815 311.552655,77.7985726 C307.460671,80.1613638 304.143083,85.9068623 304.143083,90.6324446" id="Fill-87" fill="#7AB9DD"></path>
            <polygon id="Fill-89" fill="#7AB9DD" points="229.936393 153.853872 319.956536 101.879506 319.956536 111.907949 229.936393 163.882314 139.91537 111.907949 139.91537 101.879506"></polygon>
            <path d="M192.702765,253.864969 L192.702765,258.066074 C192.702765,258.066074 185.608231,257.499356 185.98663,257.423676 C186.365028,257.347116 192.702765,253.864969 192.702765,253.864969" id="Fill-91" fill="#E1E6EA"></path>
            <polygon id="Fill-93" fill="#E1E6EA" points="0.000294191348 225.998994 0.000294191348 230.560017 6.34067045 228.279945"></polygon>
            <path d="M116.684953,299.173624 L1.43178483,232.631793 C0.475228413,232.080035 0.00443017586,231.338198 0,230.559401 C-0.00524978789,229.611644 0.682027638,228.609328 2.0284226,227.833171 L67.7060966,189.914113 C70.1551275,188.499078 73.8959934,188.344199 76.0176655,189.569154 L191.271714,256.110985 C193.393386,257.33594 193.124987,259.495452 190.675076,260.910487 L124.997402,298.828665 C122.547491,300.2437 118.806625,300.398579 116.684953,299.173624" id="Fill-95" fill="#E1E6EA"></path>
            <polygon id="Fill-97" fill="#E1E6EA" points="196.51887 249.215771 192.785044 251.328643 192.703205 245.099146"></polygon>
            <polygon id="Fill-99" fill="#E1E6EA" points="76.1028492 96.2492875 72.4482229 98.3207998 78.2597211 102.066946"></polygon>
            <path d="M194.083391,248.975972 L78.829343,182.434141 C76.7076709,181.209185 74.9723174,177.892478 74.9723174,175.063288 L74.9723174,99.2251724 C74.9723174,96.395983 76.7076709,95.0839079 78.829343,96.3097433 L194.083391,162.850694 C196.205063,164.07565 197.941297,167.392357 197.941297,170.221547 L197.941297,246.059662 C197.941297,248.887972 196.205063,250.200927 194.083391,248.975972" id="Fill-101" fill="#E1E6EA"></path>
            <path d="M116.684953,294.612073 L1.43178483,228.070242 C0.475228413,227.518484 0.00443017586,226.776647 0,225.99873 C-0.00524978789,225.050093 0.682027638,224.047777 2.0284226,223.27162 L67.7060966,185.352562 C70.1551275,183.937527 73.8959934,183.782648 76.0176655,185.007603 L191.271714,251.549434 C193.393386,252.774389 193.124987,254.933901 190.675076,256.348936 L124.997402,294.267114 C122.547491,295.682149 118.806625,295.837028 116.684953,294.612073" id="Fill-103" fill="#F2F3F4"></path>
            <path d="M190.352381,251.098612 L75.0983329,184.557661 C72.9775409,183.331825 71.2413074,180.015998 71.2413074,177.186808 L71.2413074,101.348692 C71.2413074,98.519503 72.9775409,97.207428 75.0983329,98.4323834 L190.352381,164.974214 C192.474053,166.19829 194.210287,169.515877 194.210287,172.345067 L194.210287,248.183183 C194.210287,251.011492 192.474053,252.324447 190.352381,251.098612" id="Fill-105" fill="#D7DCE0"></path>
            <path d="M183.156912,239.964629 L82.29433,181.730847 C80.5668965,180.733811 79.1536218,178.033981 79.1536218,175.73103 L79.1536218,114.449819 C79.1536218,112.147748 80.5668965,111.079432 82.29433,112.076468 L183.156912,170.30937 C184.884346,171.306406 186.296741,174.007116 186.296741,176.309188 L186.296741,237.590398 C186.296741,239.89335 184.884346,240.961666 183.156912,239.964629" id="Fill-107" fill="#FFFFFF"></path>
            <path d="M134.561998,137.747468 C134.561998,138.918744 133.739201,139.393062 132.725445,138.807864 C131.711689,138.222666 130.889772,136.797952 130.889772,135.627556 C130.889772,134.45628 131.711689,133.981962 132.725445,134.56716 C133.739201,135.153238 134.561998,136.577073 134.561998,137.747468" id="Fill-109" fill="#D6D6D6"></path>
            <path d="M133.619258,137.203542 C133.619258,137.7729 133.218859,138.004339 132.725181,137.71922 C132.231503,137.434981 131.831984,136.741544 131.831984,136.171306 C131.831984,135.601948 132.231503,135.370509 132.725181,135.655628 C133.218859,135.939867 133.619258,136.634184 133.619258,137.203542" id="Fill-111" fill="#FFFFFF"></path>
            <path d="M138.555071,140.053235 C138.555071,140.622593 138.154673,140.854032 137.660995,140.568914 C137.167316,140.284675 136.767798,139.591237 136.767798,139.020999 C136.767798,138.451641 137.167316,138.220202 137.660995,138.505321 C138.154673,138.78956 138.555071,139.483878 138.555071,140.053235" id="Fill-113" fill="#D6D6D6"></path>
            <path d="M67.7011686,196.49156 L63.5027044,198.915951 C63.3566249,199.001311 63.3935848,199.15971 63.5863041,199.27147 L68.3910861,202.046099 C68.5838053,202.156979 68.8601243,202.178979 69.0070838,202.093619 L73.205548,199.670108 C73.3525075,199.585629 73.3146676,199.425469 73.1219483,199.31371 L68.3180463,196.54084 C68.1244471,196.42908 67.8481281,196.40708 67.7011686,196.49156" id="Fill-115" fill="#C2C7CC"></path>
            <path d="M71.0067003,203.555646 L75.8114823,206.329395 C76.0050816,206.441155 76.2814005,206.463155 76.42836,206.377795 L80.6259442,203.954284 C80.7729037,203.868925 80.7359438,203.709645 80.5423446,203.598766 L75.7375626,200.824136 C75.5448433,200.713256 75.2676443,200.691256 75.1215649,200.775736 L70.9231006,203.200127 C70.7761411,203.284607 70.813101,203.443886 71.0067003,203.555646" id="Fill-117" fill="#C2C7CC"></path>
            <path d="M78.4270085,207.839558 L83.2317905,210.613307 C83.4245098,210.725067 83.7017087,210.747067 83.8486682,210.661707 L88.0462525,208.238196 C88.1932119,208.152836 88.156252,207.994437 87.9626528,207.882677 L83.1578708,205.108048 C82.9651515,204.997168 82.6879525,204.975168 82.5409931,205.059648 L78.3434088,207.484039 C78.1964493,207.568519 78.2334092,207.727798 78.4270085,207.839558" id="Fill-119" fill="#C2C7CC"></path>
            <path d="M91.2681844,214.946587 L95.4666487,212.522196 C95.6136081,212.436836 95.5766483,212.278437 95.383049,212.166677 L90.578267,209.392048 C90.3855477,209.281168 90.1092287,209.259168 89.9622693,209.344528 L85.763805,211.768039 C85.6168456,211.852519 85.6546854,212.012678 85.8474047,212.123558 L90.6521867,214.897307 C90.844906,215.009067 91.1212249,215.031067 91.2681844,214.946587" id="Fill-121" fill="#C2C7CC"></path>
            <path d="M102.803093,216.450501 L97.9991912,213.676752 C97.8055919,213.564992 97.5292729,213.542992 97.3823135,213.628352 L93.1838492,216.051863 C93.0368898,216.137223 93.0747296,216.296502 93.2674489,216.408262 L98.0722309,219.182011 C98.2649502,219.292891 98.5412692,219.314891 98.6882286,219.230411 L102.886693,216.80602 C103.033652,216.72154 102.995812,216.562261 102.803093,216.450501" id="Fill-123" fill="#C2C7CC"></path>
            <path d="M110.223313,220.734501 L105.418531,217.960752 C105.225812,217.848992 104.948613,217.826992 104.802534,217.912352 L100.604069,220.335863 C100.45711,220.421223 100.49407,220.580502 100.687669,220.692262 L105.492451,223.466011 C105.68517,223.576891 105.961489,223.598891 106.108449,223.514411 L110.306913,221.09002 C110.453873,221.00642 110.416033,220.846261 110.223313,220.734501" id="Fill-125" fill="#C2C7CC"></path>
            <path d="M108.107977,224.976349 L112.911879,227.749219 C113.105479,227.860979 113.381798,227.882979 113.528757,227.798499 L117.727221,225.374108 C117.874181,225.289628 117.836341,225.130349 117.642742,225.018589 L112.83884,222.24484 C112.64524,222.13396 112.368921,222.11108 112.221962,222.19644 L108.024378,224.620831 C107.877418,224.70443 107.914378,224.86459 108.107977,224.976349" id="Fill-127" fill="#C2C7CC"></path>
            <path d="M125.063402,229.302413 L120.2595,226.528664 C120.065901,226.417784 119.789582,226.394904 119.642622,226.480264 L115.444158,228.904655 C115.297198,228.989134 115.335038,229.148414 115.528638,229.260173 L120.33254,232.033923 C120.525259,232.144803 120.802458,232.166803 120.949417,232.082323 L125.147002,229.657932 C125.293961,229.574332 125.257001,229.414173 125.063402,229.302413" id="Fill-129" fill="#C2C7CC"></path>
            <path d="M132.483622,233.586325 L127.67972,230.812576 C127.486121,230.701696 127.209802,230.679696 127.062842,230.764176 L122.864378,233.188567 C122.717419,233.273046 122.755258,233.432326 122.947978,233.544085 L127.75276,236.317835 C127.945479,236.428715 128.222678,236.451594 128.368757,236.366235 L132.567222,233.941844 C132.714181,233.858244 132.677221,233.698085 132.483622,233.586325" id="Fill-131" fill="#C2C7CC"></path>
            <path d="M139.903842,237.870325 L135.09906,235.097456 C134.906341,234.985696 134.629142,234.963696 134.483063,235.048176 L130.284598,237.472567 C130.137639,237.557046 130.175479,237.716326 130.368198,237.828085 L135.17298,240.601835 C135.365699,240.712715 135.642018,240.735594 135.788978,240.650235 L139.987442,238.225844 C140.134401,238.142244 140.096562,237.982085 139.903842,237.870325" id="Fill-133" fill="#C2C7CC"></path>
            <path d="M147.324062,242.154325 L142.51928,239.381456 C142.326561,239.269696 142.049362,239.247696 141.903283,239.332176 L137.704818,241.756567 C137.557859,241.841046 137.594819,242.000326 137.788418,242.112085 L142.5932,244.885835 C142.785919,244.997594 143.062238,245.019594 143.209198,244.934235 L147.407662,242.510724 C147.554622,242.426244 147.516782,242.266085 147.324062,242.154325" id="Fill-135" fill="#C2C7CC"></path>
            <path d="M154.744371,246.439117 L149.939589,243.665367 C149.745989,243.553608 149.46967,243.531608 149.322711,243.616088 L145.125127,246.040479 C144.978167,246.125838 145.015127,246.284238 145.208726,246.395997 L150.013508,249.170627 C150.206228,249.281506 150.483427,249.303506 150.630386,249.218147 L154.82797,246.794636 C154.97493,246.710156 154.93797,246.549997 154.744371,246.439117" id="Fill-137" fill="#C2C7CC"></path>
            <path d="M162.164591,250.723117 L157.359809,247.949367 C157.16621,247.837608 156.889891,247.815608 156.742931,247.900088 L152.545347,250.324479 C152.398387,250.409838 152.435347,250.568238 152.628947,250.679997 L157.433729,253.454627 C157.626448,253.565506 157.903647,253.587506 158.049726,253.502147 L162.248191,251.078636 C162.39515,250.994156 162.35819,250.834877 162.164591,250.723117" id="Fill-139" fill="#C2C7CC"></path>
            <path d="M172.674304,256.791134 L164.779853,252.232751 C164.587134,252.120992 164.310815,252.099872 164.163855,252.185232 L159.965391,254.608742 C159.818432,254.693222 159.856272,254.852502 160.048991,254.964261 L167.943441,259.522644 C168.137041,259.633524 168.413359,259.655524 168.560319,259.570164 L172.757903,257.146653 C172.904863,257.062173 172.867903,256.902014 172.674304,256.791134" id="Fill-141" fill="#C2C7CC"></path>
            <path d="M73.8383537,211.815031 L78.0368179,209.39152 C78.1828974,209.30616 78.1459375,209.146881 77.9523383,209.036001 L73.1475563,206.261372 C72.954837,206.150492 72.678518,206.128492 72.5315586,206.212972 L68.3330943,208.637363 C68.1861348,208.720962 68.2239747,208.881122 68.416694,208.992881 L73.221476,211.766631 C73.4150753,211.878391 73.6913942,211.90039 73.8383537,211.815031" id="Fill-143" fill="#C2C7CC"></path>
            <path d="M79.9519548,210.497588 L75.7534905,212.921099 C75.607411,213.006458 75.6443709,213.165738 75.8370902,213.276617 L80.6418722,216.051247 C80.8345915,216.162126 81.1117904,216.184126 81.2578699,216.098767 L85.4563342,213.675256 C85.6032936,213.590776 85.5654537,213.431497 85.3727345,213.319737 L80.5679525,210.545987 C80.3752332,210.434228 80.0989142,210.412228 79.9519548,210.497588" id="Fill-145" fill="#C2C7CC"></path>
            <path d="M88.6784421,220.382943 L92.8769064,217.959432 C93.0229858,217.874072 92.986026,217.715673 92.7924267,217.603913 L87.9885247,214.829283 C87.7958054,214.718404 87.5186064,214.696404 87.372527,214.781764 L83.1740627,217.205275 C83.0271033,217.289754 83.0649431,217.449914 83.2576624,217.560793 L88.0615644,220.334543 C88.2551637,220.446302 88.5314826,220.468302 88.6784421,220.382943" id="Fill-147" fill="#C2C7CC"></path>
            <path d="M94.7919552,219.065588 L90.5934909,221.489099 C90.4474115,221.574458 90.4843713,221.733738 90.6779706,221.844617 L95.4818726,224.619247 C95.6754719,224.730126 95.9517909,224.752126 96.0987503,224.666767 L100.296335,222.243256 C100.443294,222.158776 100.406334,221.999497 100.212735,221.887737 L95.4088329,219.113987 C95.2152336,219.002228 94.9389146,218.980228 94.7919552,219.065588" id="Fill-149" fill="#C2C7CC"></path>
            <path d="M102.212263,223.3495 L98.0137991,225.77301 C97.8677197,225.85837 97.9046795,226.01765 98.0982788,226.129409 L102.902181,228.903159 C103.09578,229.014038 103.372099,229.036038 103.519059,228.951559 L107.716643,226.527168 C107.863602,226.442688 107.826642,226.283409 107.633043,226.171649 L102.829141,223.397899 C102.635542,223.28614 102.359223,223.26414 102.212263,223.3495" id="Fill-151" fill="#C2C7CC"></path>
            <path d="M109.632484,227.6335 L105.434019,230.05701 C105.28794,230.14237 105.3249,230.30165 105.518499,230.413409 L110.322401,233.187159 C110.51512,233.298038 110.792319,233.320038 110.939279,233.235559 L115.136863,230.811168 C115.283822,230.727568 115.245983,230.567409 115.053263,230.455649 L110.249361,227.681899 C110.055762,227.57014 109.779443,227.54814 109.632484,227.6335" id="Fill-153" fill="#C2C7CC"></path>
            <path d="M117.052704,231.917499 L112.85424,234.34101 C112.70816,234.42637 112.74512,234.585649 112.937839,234.697409 L117.742621,237.471159 C117.935341,237.582038 118.212539,237.604038 118.358619,237.519558 L122.557083,235.095168 C122.704043,235.011568 122.666203,234.851408 122.473484,234.739649 L117.668702,231.965899 C117.475982,231.85502 117.199663,231.83214 117.052704,231.917499" id="Fill-155" fill="#C2C7CC"></path>
            <path d="M124.472572,236.201411 L120.274108,238.625802 C120.128028,238.710282 120.164988,238.869561 120.358587,238.981321 L125.162489,241.755071 C125.356089,241.86595 125.632408,241.88795 125.779367,241.80347 L129.976951,239.37908 C130.123911,239.29548 130.086951,239.13532 129.893352,239.023561 L125.08945,236.249811 C124.89585,236.138932 124.619531,236.116052 124.472572,236.201411" id="Fill-157" fill="#C2C7CC"></path>
            <path d="M127.778544,243.265497 L132.582446,246.039247 C132.776045,246.150126 133.052364,246.172126 133.199323,246.087646 L137.397788,243.663255 C137.544747,243.578776 137.506907,243.419496 137.313308,243.307737 L132.509406,240.533987 C132.315807,240.423108 132.039488,240.401108 131.892528,240.485587 L127.694944,242.909978 C127.547985,242.993578 127.584944,243.153737 127.778544,243.265497" id="Fill-159" fill="#C2C7CC"></path>
            <path d="M135.198764,247.549409 L140.003546,250.323159 C140.196265,250.434918 140.473464,250.456918 140.620424,250.371558 L144.818008,247.948047 C144.964967,247.862688 144.927127,247.703408 144.734408,247.592529 L139.929626,244.817899 C139.736027,244.70702 139.459708,244.68502 139.312748,244.769499 L135.115164,247.19389 C134.968205,247.27749 135.005165,247.437649 135.198764,247.549409" id="Fill-161" fill="#C2C7CC"></path>
            <path d="M142.619072,251.833409 L147.423854,254.607158 C147.616573,254.718918 147.893772,254.740918 148.039852,254.655558 L152.238316,252.232047 C152.385276,252.146688 152.347436,251.987408 152.154716,251.876529 L147.349934,249.101899 C147.156335,248.99102 146.880016,248.96902 146.733057,249.053499 L142.535472,251.47789 C142.388513,251.56149 142.425473,251.721649 142.619072,251.833409" id="Fill-163" fill="#C2C7CC"></path>
            <path d="M159.574409,256.160353 L154.770507,253.386603 C154.576907,253.274843 154.300588,253.252844 154.153629,253.338203 L149.955165,255.761714 C149.808205,255.847074 149.846045,256.005473 150.039644,256.117233 L154.843546,258.891862 C155.037146,259.002742 155.313465,259.024742 155.460424,258.939382 L159.658008,256.515871 C159.804968,256.431392 159.768008,256.271232 159.574409,256.160353" id="Fill-165" fill="#C2C7CC"></path>
            <path d="M158.310293,261.200534 L152.614075,264.488201 C152.467115,264.573561 152.504955,264.733721 152.698554,264.84548 L155.701103,266.578194 C155.893822,266.689953 156.171021,266.711953 156.317101,266.627473 L166.744182,260.606536 C166.891141,260.522056 166.853301,260.362777 166.660582,260.251017 L161.85668,257.478148 C161.663081,257.366388 161.386762,257.344388 161.239802,257.428868 L157.041338,259.853259 C156.894379,259.936859 156.932218,260.097018 157.124938,260.208778 L158.226694,260.845015 C158.420293,260.956775 158.457253,261.115174 158.310293,261.200534" id="Fill-167" fill="#C2C7CC"></path>
            <path d="M57.5786546,202.728889 L66.0415829,207.61551 C66.2343021,207.72727 66.5106211,207.74839 66.6575806,207.66303 L70.8560448,205.240399 C71.0030043,205.15504 70.9651644,204.99488 70.7724451,204.884001 L62.3095168,199.997379 C62.1167976,199.886499 61.8404786,199.8645 61.6935191,199.949859 L57.4950549,202.37337 C57.3480954,202.45785 57.3859353,202.618009 57.5786546,202.728889" id="Fill-169" fill="#C2C7CC"></path>
            <path d="M54.6597935,215.035115 L59.4636955,217.808864 C59.6572948,217.920624 59.9336137,217.942624 60.0805732,217.857264 L64.2790375,215.433753 C64.4259969,215.348394 64.3881571,215.189114 64.1945578,215.078235 L59.3906558,212.303605 C59.1979365,212.192725 58.9207375,212.170725 58.7746581,212.256085 L54.5761938,214.679596 C54.4292344,214.764076 54.4661942,214.923355 54.6597935,215.035115" id="Fill-171" fill="#C2C7CC"></path>
            <path d="M62.0800137,219.319115 L66.8839157,222.092864 C67.077515,222.204624 67.353834,222.226624 67.5007934,222.141264 L71.6992577,219.717753 C71.8462171,219.632393 71.8083773,219.473114 71.614778,219.362234 L66.810876,216.587605 C66.6172767,216.476725 66.3409577,216.454725 66.1939983,216.540085 L61.996414,218.963596 C61.8494546,219.048076 61.8864144,219.208235 62.0800137,219.319115" id="Fill-173" fill="#C2C7CC"></path>
            <path d="M79.0354382,223.64597 L74.2315362,220.872221 C74.0379369,220.760461 73.761618,220.738461 73.6146585,220.823821 L69.4161942,223.247332 C69.2692348,223.332692 69.3070746,223.491971 69.5006739,223.602851 L74.3045759,226.37748 C74.4972952,226.48836 74.7744942,226.51036 74.9205736,226.425 L79.1190379,224.001489 C79.2659973,223.917009 79.2290375,223.75773 79.0354382,223.64597" id="Fill-175" fill="#C2C7CC"></path>
            <path d="M76.9201021,227.887027 L81.7248841,230.660776 C81.9176034,230.772536 82.1948024,230.794536 82.3408818,230.709176 L86.5393461,228.285665 C86.6863055,228.200305 86.6484657,228.041906 86.4557464,227.930146 L81.6509644,225.155517 C81.4582451,225.044637 81.1819262,225.022637 81.0349667,225.107997 L76.8365024,227.531508 C76.689543,227.615988 76.7273828,227.776147 76.9201021,227.887027" id="Fill-177" fill="#C2C7CC"></path>
            <path d="M84.3403223,232.171819 L89.1442243,234.944688 C89.3378236,235.056448 89.6141426,235.078448 89.761102,234.993968 L93.9595663,232.569577 C94.1065258,232.484217 94.0686859,232.325818 93.8759666,232.214058 L89.0711846,229.440309 C88.8784653,229.328549 88.6012664,229.306549 88.4551869,229.391909 L84.2567226,231.81542 C84.1097632,231.8999 84.1476031,232.060059 84.3403223,232.171819" id="Fill-179" fill="#C2C7CC"></path>
            <path d="M91.7605425,236.455818 L96.5644446,239.228688 C96.7580438,239.340448 97.0343628,239.362448 97.1813222,239.277968 L101.379787,236.853577 C101.526746,236.768217 101.488906,236.609818 101.295307,236.498058 L96.4914048,233.724309 C96.2986856,233.612549 96.0214866,233.590549 95.8754071,233.675909 L91.6769429,236.09942 C91.5299834,236.183899 91.5669433,236.344059 91.7605425,236.455818" id="Fill-181" fill="#C2C7CC"></path>
            <path d="M99.1808508,240.739818 L103.984753,243.512688 C104.178352,243.624448 104.454671,243.646448 104.60163,243.561968 L108.800095,241.137577 C108.947054,241.053097 108.909214,240.893818 108.715615,240.782058 L103.911713,238.008309 C103.718114,237.896549 103.441795,237.874549 103.294835,237.959909 L99.0972511,240.38342 C98.9502916,240.467899 98.9872515,240.628059 99.1808508,240.739818" id="Fill-183" fill="#C2C7CC"></path>
            <path d="M106.601071,245.02373 L111.405853,247.79748 C111.598572,247.90836 111.875771,247.931239 112.021851,247.84588 L116.220315,245.421489 C116.367274,245.337009 116.329435,245.17773 116.136715,245.06597 L111.331933,242.292221 C111.138334,242.181341 110.862015,242.158461 110.715056,242.243821 L106.517471,244.668212 C106.370512,244.751811 106.407472,244.911971 106.601071,245.02373" id="Fill-185" fill="#C2C7CC"></path>
            <path d="M114.020851,249.30773 L118.825633,252.08148 C119.019232,252.19324 119.295551,252.215239 119.442511,252.12988 L123.640975,249.706369 C123.787055,249.621009 123.750095,249.46173 123.556495,249.34997 L118.751713,246.576221 C118.558994,246.465341 118.282675,246.442461 118.135716,246.527821 L113.937251,248.952212 C113.790292,249.035811 113.828132,249.195971 114.020851,249.30773" id="Fill-187" fill="#C2C7CC"></path>
            <path d="M121.441511,253.591642 L126.245413,256.365392 C126.439013,256.477151 126.715332,256.499151 126.862291,256.413792 L131.060755,253.990281 C131.207715,253.904921 131.169875,253.745642 130.976276,253.633882 L126.172374,250.860133 C125.979654,250.749253 125.702455,250.727253 125.556376,250.811733 L121.357912,253.236124 C121.210952,253.320603 121.247912,253.479883 121.441511,253.591642" id="Fill-189" fill="#C2C7CC"></path>
            <path d="M128.86182,257.875642 L133.665722,260.649392 C133.859321,260.761151 134.13564,260.783151 134.282599,260.697792 L138.481064,258.274281 C138.628023,258.188921 138.590183,258.029642 138.396584,257.918762 L133.592682,255.144132 C133.399083,255.033253 133.122764,255.011253 132.975804,255.095733 L128.77822,257.520124 C128.63126,257.604603 128.66822,257.763883 128.86182,257.875642" id="Fill-191" fill="#C2C7CC"></path>
            <path d="M136.28204,262.159642 L149.828709,269.981053 C150.021428,270.092812 150.297747,270.113932 150.444707,270.028573 L154.643171,267.605062 C154.79013,267.520582 154.752291,267.361303 154.559571,267.249543 L141.012902,259.428132 C140.819303,259.317253 140.542984,259.295253 140.396024,259.380613 L136.19756,261.804124 C136.051481,261.888603 136.088441,262.047883 136.28204,262.159642" id="Fill-193" fill="#C2C7CC"></path>
            <path d="M49.5911885,206.947593 L45.3927242,209.371984 C45.2466447,209.456464 45.2836046,209.615743 45.4772039,209.727503 L52.2839784,213.657568 C52.4775777,213.769327 52.7538966,213.790447 52.9008561,213.705968 L57.0993204,211.282457 C57.2453998,211.197097 57.2084399,211.037818 57.0157207,210.926058 L50.2080662,206.995993 C50.0144669,206.885113 49.7381479,206.862233 49.5911885,206.947593" id="Fill-195" fill="#C2C7CC"></path>
            <path d="M52.8250004,215.495705 L44.1543928,210.491164 C43.9616736,210.379404 43.6853546,210.357404 43.5383951,210.442764 L39.3399309,212.866275 C39.1929714,212.950754 39.2308113,213.110034 39.4235306,213.221793 L48.0941381,218.227215 C48.2868574,218.338974 48.5631763,218.360974 48.7101358,218.275615 L52.9086,215.852104 C53.0555595,215.767624 53.0177196,215.607465 52.8250004,215.495705" id="Fill-197" fill="#C2C7CC"></path>
            <path d="M62.3447167,220.992252 L55.4675425,217.021707 C55.2739432,216.909948 54.9976242,216.888828 54.8506648,216.974187 L50.6530805,219.397698 C50.506121,219.482178 50.5430809,219.642337 50.7366802,219.753217 L57.6138544,223.723762 C57.8065737,223.834642 58.0837727,223.857522 58.2298521,223.772162 L62.4283164,221.347771 C62.5752758,221.264171 62.538316,221.104012 62.3447167,220.992252" id="Fill-199" fill="#C2C7CC"></path>
            <path d="M72.8462454,227.055958 L64.8505953,222.438615 C64.6569961,222.327735 64.3806771,222.305735 64.2337176,222.390215 L60.0352534,224.814606 C59.8882939,224.899086 59.9261338,225.058365 60.118853,225.170125 L68.1153831,229.787467 C68.3089824,229.898347 68.5853013,229.920347 68.7322608,229.834987 L72.9298451,227.411476 C73.0768045,227.326997 73.0398447,227.166837 72.8462454,227.055958" id="Fill-201" fill="#C2C7CC"></path>
            <path d="M70.5220861,231.176718 L111.874891,255.051909 C112.06849,255.163668 112.344809,255.184788 112.491769,255.100309 L116.690233,252.676798 C116.836313,252.591438 116.799353,252.431279 116.606633,252.320399 L75.2529484,228.445208 C75.0602291,228.334329 74.7839101,228.312329 74.6369507,228.396809 L70.4384864,230.8212 C70.2915269,230.904799 70.3293668,231.064959 70.5220861,231.176718" id="Fill-203" fill="#C2C7CC"></path>
            <path d="M128.063399,258.935246 L119.393671,253.929825 C119.200072,253.818065 118.923753,253.796066 118.776793,253.881425 L114.578329,256.304936 C114.43225,256.389416 114.46921,256.549575 114.661929,256.661335 L123.332536,261.666756 C123.525256,261.777636 123.802455,261.799636 123.948534,261.715156 L128.146998,259.290765 C128.293958,259.206285 128.256998,259.047006 128.063399,258.935246" id="Fill-205" fill="#C2C7CC"></path>
            <path d="M137.583555,264.431794 L130.706381,260.460369 C130.512781,260.349489 130.236462,260.327489 130.089503,260.412849 L125.891039,262.83724 C125.744079,262.920839 125.781919,263.080999 125.975518,263.192758 L132.852693,267.163303 C133.045412,267.274183 133.321731,267.296183 133.46869,267.210823 L137.667155,264.787312 C137.814114,264.702833 137.776274,264.542673 137.583555,264.431794" id="Fill-207" fill="#C2C7CC"></path>
            <path d="M148.785913,270.899417 L140.616904,266.183515 C140.424184,266.071756 140.147865,266.049756 140.000906,266.135115 L135.802442,268.558626 C135.655482,268.643986 135.693322,268.803265 135.886041,268.914145 L144.055051,273.630927 C144.24777,273.741807 144.524969,273.763807 144.671048,273.679327 L148.869513,271.254936 C149.016472,271.170456 148.979512,271.011177 148.785913,270.899417" id="Fill-209" fill="#C2C7CC"></path>
            <path d="M69.4504261,216.271774 L73.6488904,213.847383 C73.7949698,213.762023 73.75801,213.603624 73.5644107,213.491864 L68.7605087,210.717235 C68.5669094,210.606355 68.2905904,210.584355 68.143631,210.669715 L63.9460467,213.093226 C63.7990873,213.177706 63.8360471,213.337865 64.0296464,213.449625 L68.8335484,216.222494 C69.0271477,216.334254 69.3034666,216.356254 69.4504261,216.271774" id="Fill-211" fill="#C2C7CC"></path>
            <path d="M76.8702063,220.555686 L81.0686706,218.131295 C81.21563,218.046815 81.1786702,217.887536 80.9850709,217.775776 L76.1802889,215.001147 C75.9875696,214.891147 75.7112507,214.868267 75.5642912,214.953627 L71.3658269,217.378018 C71.2188675,217.461618 71.2567073,217.621777 71.4494266,217.733537 L76.2542086,220.506406 C76.4469279,220.618166 76.7232469,220.640166 76.8702063,220.555686" id="Fill-213" fill="#C2C7CC"></path>
            <path d="M78.8695588,222.017537 L83.6734608,224.791286 C83.8670601,224.902166 84.1433791,224.924166 84.2903385,224.839686 L88.4888028,222.415295 C88.6357622,222.330815 88.5979224,222.171536 88.4052031,222.059776 L83.6004211,219.286027 C83.4077018,219.175147 83.1305029,219.152267 82.9844234,219.237627 L78.7859591,221.662018 C78.6389997,221.745618 78.6768395,221.905777 78.8695588,222.017537" id="Fill-215" fill="#C2C7CC"></path>
            <path d="M95.8254233,226.3436 L91.0206413,223.569851 C90.827922,223.458971 90.5507231,223.436971 90.4046436,223.521451 L86.2061793,225.945842 C86.0592199,226.030322 86.0961798,226.189601 86.289779,226.30136 L91.094561,229.07511 C91.2881603,229.18687 91.5644793,229.20887 91.7114387,229.12351 L95.909023,226.699999 C96.0559825,226.615519 96.0190226,226.45536 95.8254233,226.3436" id="Fill-217" fill="#C2C7CC"></path>
            <path d="M103.245644,230.627512 L98.4408615,227.854643 C98.2472623,227.742883 97.9709433,227.720883 97.8239838,227.805363 L93.6263996,230.229754 C93.4794401,230.314233 93.5164,230.473513 93.7099992,230.585272 L98.5147813,233.359022 C98.7075005,233.470782 98.9846995,233.492782 99.1316589,233.407422 L103.329243,230.983911 C103.476203,230.899431 103.439243,230.739272 103.245644,230.627512" id="Fill-219" fill="#C2C7CC"></path>
            <path d="M110.665864,234.912392 L105.861082,232.138643 C105.667482,232.026883 105.391163,232.004883 105.244204,232.089363 L101.04662,234.513754 C100.89966,234.598233 100.93662,234.757513 101.130219,234.869272 L105.935001,237.643902 C106.127721,237.754782 106.40492,237.776782 106.550999,237.691422 L110.749463,235.267911 C110.896423,235.183431 110.858583,235.023272 110.665864,234.912392" id="Fill-221" fill="#C2C7CC"></path>
            <path d="M118.086084,239.196304 L113.281302,236.422555 C113.088583,236.310795 112.811384,236.288795 112.665304,236.374155 L108.46684,238.797666 C108.319881,238.883025 108.35772,239.041425 108.55044,239.153184 L113.355222,241.927814 C113.547941,242.038694 113.82426,242.060693 113.971219,241.975334 L118.169684,239.551823 C118.316643,239.467343 118.278803,239.307184 118.086084,239.196304" id="Fill-223" fill="#C2C7CC"></path>
            <path d="M121.391704,246.25951 L125.590168,243.835999 C125.736247,243.750639 125.699287,243.59136 125.505688,243.48048 L120.701786,240.705851 C120.509067,240.594971 120.231868,240.572971 120.085788,240.658331 L115.887324,243.081842 C115.740365,243.166321 115.777325,243.326481 115.970924,243.43736 L120.774826,246.21111 C120.968425,246.32287 121.244744,246.344869 121.391704,246.25951" id="Fill-225" fill="#C2C7CC"></path>
            <path d="M128.811924,250.54351 L133.010388,248.119999 C133.156468,248.034639 133.119508,247.87624 132.925908,247.76448 L128.122006,244.989851 C127.928407,244.878971 127.652088,244.856971 127.505129,244.942331 L123.307544,247.365842 C123.160585,247.450321 123.197545,247.610481 123.391144,247.72136 L128.195046,250.49511 C128.388645,250.606869 128.664964,250.628869 128.811924,250.54351" id="Fill-227" fill="#C2C7CC"></path>
            <path d="M136.231792,254.828302 L140.430256,252.403911 C140.577216,252.318551 140.540256,252.160152 140.346657,252.048392 L135.541875,249.273762 C135.349155,249.162883 135.072836,249.140883 134.925877,249.226243 L130.727413,251.649754 C130.580453,251.734233 130.618293,251.894393 130.811012,252.005272 L135.615794,254.779022 C135.808514,254.890781 136.084833,254.912781 136.231792,254.828302" id="Fill-229" fill="#C2C7CC"></path>
            <path d="M143.652012,259.112302 L147.850476,256.687911 C147.997436,256.602551 147.959596,256.444152 147.766877,256.332392 L142.962095,253.557762 C142.769376,253.446883 142.493057,253.424883 142.346097,253.510243 L138.147633,255.933754 C138.000673,256.018233 138.038513,256.178393 138.231233,256.290152 L143.036015,259.063022 C143.228734,259.174781 143.505053,259.196781 143.652012,259.112302" id="Fill-231" fill="#C2C7CC"></path>
            <path d="M149.765965,257.793979 L145.567501,260.217489 C145.420542,260.302849 145.458381,260.462129 145.651101,260.573888 L150.455883,263.347638 C150.648602,263.458517 150.924921,263.480517 151.07188,263.396038 L155.270345,260.971647 C155.417304,260.888047 155.379464,260.727888 155.186745,260.616128 L150.381963,257.842378 C150.189244,257.730619 149.912925,257.708619 149.765965,257.793979" id="Fill-233" fill="#C2C7CC"></path>
            <path d="M62.270357,212.120126 L66.4688213,209.695735 C66.6149007,209.611255 66.5779409,209.451976 66.3852216,209.340216 L56.2661395,203.497918 C56.0734202,203.386158 55.7971012,203.365038 55.6501418,203.449518 L51.4516775,205.873029 C51.3047181,205.958389 51.3425579,206.118548 51.5352772,206.229428 L61.6534793,212.070846 C61.8470786,212.182605 62.1233975,212.204605 62.270357,212.120126" id="Fill-235" fill="#C2C7CC"></path>
            <path d="M69.5462577,195.786067 L74.8605578,198.853735 C75.0541571,198.965495 75.3304761,198.987495 75.4774355,198.903015 L77.8771865,197.51702 C78.024146,197.432541 77.9863061,197.272381 77.7935869,197.160622 L72.4792868,194.092953 C72.2856875,193.981194 72.0093685,193.960074 71.8624091,194.044553 L69.4626581,195.430548 C69.3156986,195.515028 69.3535385,195.674307 69.5462577,195.786067" id="Fill-237" fill="#C2C7CC"></path>
            <path d="M77.1679972,200.186842 L82.4822973,203.254511 C82.6750166,203.36627 82.9513355,203.38827 83.098295,203.302911 L85.498046,201.917796 C85.6450054,201.832436 85.6080456,201.672277 85.4144463,201.561397 L80.1010262,198.492849 C79.9074269,198.381969 79.631108,198.359969 79.4841485,198.445329 L77.0843975,199.830444 C76.9374381,199.914923 76.9743979,200.075083 77.1679972,200.186842" id="Fill-239" fill="#C2C7CC"></path>
            <path d="M84.7892967,204.586826 L90.1035968,207.654494 C90.297196,207.766254 90.573515,207.788254 90.7204744,207.702894 L93.1202255,206.317779 C93.2671849,206.2333 93.229345,206.07314 93.0366258,205.961381 L87.7223257,202.893712 C87.5287264,202.781953 87.2524074,202.760833 87.105448,202.845312 L84.705697,204.231307 C84.5587375,204.314907 84.5965774,204.475066 84.7892967,204.586826" id="Fill-241" fill="#C2C7CC"></path>
            <path d="M92.4111241,208.986809 L97.7254242,212.055358 C97.9181435,212.166237 98.1944625,212.189117 98.3414219,212.103758 L100.741173,210.718643 C100.888132,210.633283 100.851173,210.473124 100.657573,210.361364 L95.3441531,207.293696 C95.1505539,207.181936 94.8742349,207.160816 94.7272754,207.245296 L92.3275244,208.631291 C92.180565,208.71577 92.2175248,208.87593 92.4111241,208.986809" id="Fill-243" fill="#C2C7CC"></path>
            <path d="M100.032864,213.387673 L105.347164,216.455341 C105.539883,216.567101 105.817082,216.589101 105.963161,216.503741 L108.363792,215.118626 C108.509872,215.034147 108.472912,214.873987 108.280193,214.762228 L102.965893,211.694559 C102.772293,211.5828 102.495974,211.56168 102.349015,211.646159 L99.9492639,213.032154 C99.8023044,213.115754 99.8392643,213.275913 100.032864,213.387673" id="Fill-245" fill="#C2C7CC"></path>
            <path d="M107.654603,217.787656 L112.968903,220.856205 C113.161622,220.967084 113.437941,220.989084 113.584901,220.904605 L115.984652,219.51949 C116.131611,219.43413 116.094651,219.273971 115.901052,219.162211 L110.586752,216.094543 C110.394033,215.982783 110.116834,215.961663 109.970754,216.046143 L107.571003,217.432138 C107.424044,217.516617 107.461004,217.676777 107.654603,217.787656" id="Fill-247" fill="#C2C7CC"></path>
            <path d="M115.27599,222.18852 L120.590291,225.256188 C120.78301,225.367948 121.060209,225.389948 121.206288,225.304588 L123.606919,223.919473 C123.752999,223.834114 123.716039,223.674834 123.52332,223.563075 L118.209019,220.494526 C118.01542,220.383647 117.739101,220.362527 117.592142,220.447006 L115.192391,221.833001 C115.045431,221.916601 115.082391,222.07676 115.27599,222.18852" id="Fill-249" fill="#C2C7CC"></path>
            <path d="M122.89773,226.588503 L128.21203,229.656172 C128.404749,229.767932 128.681068,229.789931 128.828028,229.705452 L131.227779,228.319457 C131.374738,228.234977 131.337778,228.074818 131.144179,227.963058 L125.829879,224.89539 C125.63716,224.78363 125.359961,224.76251 125.213881,224.84699 L122.81413,226.232985 C122.667171,226.317464 122.704131,226.476744 122.89773,226.588503" id="Fill-251" fill="#C2C7CC"></path>
            <path d="M130.519557,230.989367 L135.833857,234.057035 C136.026577,234.167915 136.302896,234.190795 136.449855,234.105435 L138.849606,232.72032 C138.996566,232.634961 138.958726,232.474801 138.766007,232.363922 L133.452586,229.295373 C133.258987,229.184494 132.982668,229.163374 132.835709,229.247853 L130.435958,230.632968 C130.288998,230.717448 130.325958,230.877607 130.519557,230.989367" id="Fill-253" fill="#C2C7CC"></path>
            <path d="M138.140857,235.38935 L143.455157,238.457019 C143.648756,238.568779 143.925075,238.590778 144.072035,238.506299 L146.471786,237.120304 C146.618745,237.035824 146.580905,236.875665 146.388186,236.763905 L141.073886,233.696237 C140.880287,233.584477 140.603968,233.563357 140.457008,233.647837 L138.057257,235.033832 C137.910298,235.118311 137.948138,235.277591 138.140857,235.38935" id="Fill-255" fill="#C2C7CC"></path>
            <path d="M145.762596,239.789334 L151.076896,242.857882 C151.269616,242.968762 151.546815,242.991642 151.692894,242.906282 L154.092645,241.521167 C154.239605,241.435808 154.202645,241.275648 154.009045,241.163889 L148.695625,238.09622 C148.502026,237.984461 148.225707,237.963341 148.078748,238.047821 L145.678997,239.433815 C145.532037,239.518295 145.568997,239.678454 145.762596,239.789334" id="Fill-257" fill="#C2C7CC"></path>
            <path d="M153.383984,244.19011 L158.698284,247.257778 C158.891883,247.369538 159.168202,247.391538 159.315162,247.306178 L161.714913,245.921063 C161.861872,245.835703 161.824032,245.676424 161.631313,245.564664 L156.317013,242.496996 C156.123414,242.385236 155.847095,242.364116 155.700135,242.448596 L153.300384,243.834591 C153.153425,243.918191 153.191264,244.07835 153.383984,244.19011" id="Fill-259" fill="#C2C7CC"></path>
            <path d="M161.005723,248.590093 L166.320023,251.657762 C166.512743,251.769521 166.789942,251.791521 166.936021,251.707041 L169.335772,250.321047 C169.482731,250.236567 169.445772,250.076407 169.252172,249.964648 L163.938752,246.896979 C163.745153,246.78522 163.468834,246.7641 163.321875,246.84858 L160.922124,248.234574 C160.775164,248.319054 160.812124,248.478333 161.005723,248.590093" id="Fill-261" fill="#C2C7CC"></path>
            <path d="M168.627463,252.990957 L173.941763,256.058625 C174.134482,256.170385 174.411681,256.192385 174.55864,256.107025 L176.958391,254.72191 C177.104471,254.63655 177.067511,254.477271 176.874792,254.365511 L171.560492,251.297843 C171.366892,251.186083 171.090573,251.164963 170.943614,251.249443 L168.543863,252.635438 C168.396904,252.719038 168.434743,252.879197 168.627463,252.990957" id="Fill-263" fill="#C2C7CC"></path>
            <path d="M82.5979289,269.830397 L45.967186,248.682317 C44.8469502,248.034639 44.9877497,246.904723 46.2813449,246.158486 L64.5201566,235.628446 C65.8137517,234.880448 67.7708644,234.799489 68.8911002,235.447166 L105.521843,256.595247 C106.642959,257.242045 106.502159,258.37196 105.208564,259.119078 L86.9697525,269.649118 C85.6761573,270.397115 83.7181647,270.477195 82.5979289,269.830397" id="Fill-265" fill="#E3E6E8"></path>
            <polygon id="Fill-267" fill="#FFFFFF" points="126.205902 169.720388 103.289907 156.490518 103.289907 130.194456 126.205902 143.425207"></polygon>
            <path d="M103.290347,130.194456 L103.290347,156.490518 L126.206342,169.721268 L126.206342,143.425207 L103.290347,130.194456 Z M105.419939,133.883403 L124.07587,144.655442 L124.07587,166.031442 L105.419939,155.260283 L105.419939,133.883403 Z" id="Fill-269" fill="#D7DCE0"></path>
            <path d="M121.030377,154.202791 C121.030377,156.627181 118.296227,157.01262 114.92408,155.065187 C111.551052,153.118635 108.816903,149.574888 108.816903,147.151377 C108.816903,144.727866 111.551052,144.342427 114.92408,146.28898 C118.296227,148.236413 121.030377,151.77928 121.030377,154.202791" id="Fill-271" fill="#26221D"></path>
            <path d="M122.758954,162.300608 C121.664239,159.900857 119.954405,159.797898 118.51913,158.674142 C117.082096,157.551266 116.954496,156.151191 116.954496,156.151191 L116.954496,153.399442 L114.748344,152.146326 L112.542193,150.851851 L112.542193,153.603601 C112.542193,153.603601 112.413713,154.854956 110.977559,154.320798 C109.541404,153.78576 107.83157,151.914887 106.736854,153.050083 C105.643019,154.186159 105.984457,157.035588 105.984457,157.035588 L114.073387,161.70397 L115.423302,162.483647 L123.511352,167.15379 C123.511352,167.15379 123.85367,164.700359 122.758954,162.300608" id="Fill-273" fill="#72483F"></path>
            <path d="M119.526903,149.093794 C119.526903,152.225702 117.383231,155.51513 114.73972,153.988335 C112.09533,152.461541 109.951658,146.696683 109.951658,143.565654 C109.951658,140.433746 112.09533,139.132231 114.73972,140.659025 C117.383231,142.18494 119.526903,145.961005 119.526903,149.093794" id="Fill-275" fill="#87594C"></path>
            <path d="M122.758954,162.300608 C121.664239,159.900857 119.954405,159.797898 118.51913,158.674142 C118.168892,158.400463 117.897853,158.110944 117.685773,157.829345 C115.156663,159.518059 112.477073,155.529914 111.808275,154.436958 C111.597076,154.473917 111.326037,154.450158 110.977559,154.320798 C109.541404,153.78576 107.83157,151.914887 106.736854,153.050083 C105.643019,154.186159 105.984457,157.035588 105.984457,157.035588 L114.073387,161.70397 L115.423302,162.483647 L123.511352,167.15379 C123.511352,167.15379 123.85367,164.700359 122.758954,162.300608" id="Fill-277" fill="#6DC67E"></path>
            <path d="M114.920208,158.238367 C113.104775,157.190291 111.71878,154.7967 111.65894,154.693741 C111.453901,154.334702 111.467981,153.967743 111.69062,153.875344 C111.913259,153.783824 112.259978,153.998543 112.465897,154.355822 C112.479097,154.378702 113.628373,156.349894 114.985328,157.091732 C115.714845,157.48949 116.401242,157.46309 117.02428,157.012532 C117.217879,156.872613 117.563718,157.038052 117.797797,157.380371 C118.031876,157.724449 118.064436,158.115168 117.870837,158.255967 C117.03484,158.859645 116.072123,158.871085 115.009967,158.288527 C114.979168,158.271807 114.950128,158.255967 114.920208,158.238367" id="Fill-279" fill="#96EAA6"></path>
            <path d="M116.160739,143.525878 C116.160739,143.525878 113.599949,147.964582 109.780763,146.376188 C105.961577,144.788674 108.426448,135.891907 113.478509,139.117095 C118.061532,142.043084 116.160739,143.525878 116.160739,143.525878" id="Fill-281" fill="#26221D"></path>
            <path d="M114.988496,143.971069 C114.988496,143.971069 119.403439,148.436172 119.526639,152.544877 C119.649838,156.654461 117.599446,156.180143 117.599446,156.180143 C117.599446,156.180143 120.448875,158.236695 121.559431,155.513106 C122.670867,152.789516 122.002069,147.226177 119.988637,144.530747 C117.975204,141.835317 116.35161,140.95356 115.483054,141.08908 C114.615377,141.222839 114.988496,143.971069 114.988496,143.971069" id="Fill-283" fill="#26221D"></path>
            <path d="M114.176435,143.895477 C114.176435,143.895477 110.444369,143.263639 110.321169,147.230665 C110.197969,151.19681 112.249242,153.091443 112.249242,153.091443 C112.249242,153.091443 109.398932,151.857687 108.288377,147.851062 C107.176941,143.844437 108.079817,139.431254 110.09325,139.060775 C112.107562,138.691177 113.496197,139.305414 114.363874,140.44237 C115.232431,141.579326 114.176435,143.895477 114.176435,143.895477" id="Fill-285" fill="#26221D"></path>
            <polygon id="Fill-287" fill="#FFFFFF" points="158.816907 188.548446 135.900913 175.318575 135.900913 149.022514 158.816907 162.253264"></polygon>
            <path d="M135.901353,149.022426 L135.901353,175.318487 L158.817347,188.549238 L158.817347,162.253176 L135.901353,149.022426 Z M138.030945,152.711372 L156.686875,163.483412 L156.686875,184.859412 L138.030945,174.088252 L138.030945,152.711372 Z" id="Fill-289" fill="#D7DCE0"></path>
            <path d="M155.36996,181.010042 C154.275244,178.563651 152.565411,178.483572 151.129256,177.351896 C149.693102,176.22022 149.565502,174.784945 149.565502,174.784945 L149.565502,171.960156 L147.35847,170.707041 L145.153199,169.411686 L145.153199,172.237355 C145.153199,172.237355 145.024719,173.52479 143.588564,172.998552 C142.15241,172.471434 140.442576,170.576801 139.34786,171.759517 C138.254024,172.943112 138.595463,175.862061 138.595463,175.862061 L146.683513,180.532204 L148.034308,181.311881 L156.122358,185.981143 C156.122358,185.981143 156.464676,183.456433 155.36996,181.010042" id="Fill-291" fill="#EFCA95"></path>
            <path d="M152.137468,167.498133 C152.137468,170.713641 149.993796,174.125388 147.350286,172.598594 C144.705896,171.072679 142.563104,165.186381 142.563104,161.969993 C142.563104,158.753605 144.705896,157.385211 147.350286,158.911125 C149.993796,160.437919 152.137468,164.282625 152.137468,167.498133" id="Fill-293" fill="#F7D9AD"></path>
            <path d="M155.36996,181.010042 C154.275244,178.563651 152.565411,178.483572 151.129256,177.351896 C150.779898,177.076457 150.508859,176.782538 150.296779,176.496539 C147.767669,178.270612 145.088079,174.216468 144.419281,173.105032 C144.207202,173.145512 143.937043,173.126152 143.588564,172.998552 C142.15241,172.471434 140.442576,170.576801 139.34786,171.759517 C138.254024,172.943112 138.595463,175.862061 138.595463,175.862061 L146.683513,180.532204 L148.034308,181.311881 L156.122358,185.981143 C156.122358,185.981143 156.464676,183.456433 155.36996,181.010042" id="Fill-295" fill="#685E8E"></path>
            <path d="M147.530774,176.959769 C145.71622,175.912573 144.329346,173.475862 144.270386,173.371143 C144.064467,173.005944 144.078547,172.629305 144.301186,172.530746 C144.523825,172.431306 144.871424,172.647785 145.076463,173.011224 C145.090543,173.034984 146.241579,175.040496 147.596773,175.781454 C148.326291,176.178332 149.011808,176.140492 149.634846,175.668814 C149.828445,175.521855 150.174284,175.685534 150.409243,176.034893 C150.642442,176.384251 150.675002,176.78553 150.481403,176.932489 C149.645406,177.565207 148.683569,177.592487 147.620533,177.010809 C147.590613,176.993209 147.560694,176.977369 147.530774,176.959769" id="Fill-297" fill="#ABABDD"></path>
            <path d="M146.144603,160.129832 C146.144603,160.129832 150.118668,162.460944 151.320743,165.843651 C152.522819,169.226358 151.713222,170.106355 151.713222,170.106355 C151.713222,170.106355 153.345616,168.65172 152.832578,164.769175 C152.577379,162.835822 151.406983,160.63759 149.413791,159.026316 C147.420598,157.414162 146.167483,157.189763 145.663245,157.574322 C145.159007,157.95888 146.144603,160.129832 146.144603,160.129832" id="Fill-299" fill="#26221D"></path>
            <path d="M148.601554,161.548651 C148.601554,161.548651 144.626609,159.291459 143.425413,161.285532 C142.223338,163.279605 143.032935,165.095038 143.032935,165.095038 C143.032935,165.095038 141.400541,161.75545 141.913579,158.465143 C142.168778,156.826589 143.339173,155.980032 145.332366,156.669069 C147.325558,157.358107 148.578674,158.581302 149.082032,159.548418 C149.58715,160.514655 148.601554,161.548651 148.601554,161.548651" id="Fill-301" fill="#26221D"></path>
            <path d="M144.834112,160.475319 C144.834112,160.475319 149.679374,166.743536 151.571367,166.608016 C153.462479,166.470737 151.222888,163.220029 151.222888,163.220029 L145.910348,158.223407 L144.834112,160.475319 Z" id="Fill-303" fill="#26221D"></path>
            <polygon id="Fill-305" fill="#FFFFFF" points="158.816907 221.923817 135.900913 208.693946 135.900913 182.397885 158.816907 195.628635"></polygon>
            <path d="M135.901353,182.397885 L135.901353,208.693946 L158.817347,221.923817 L158.817347,195.628635 L135.901353,182.397885 Z M138.030945,186.086831 L156.686875,196.858871 L156.686875,218.234871 L138.030945,207.463711 L138.030945,186.086831 Z" id="Fill-307" fill="#D7DCE0"></path>
            <path d="M141.913491,191.84069 C141.913491,191.84069 141.066934,197.800907 139.869258,199.7369 C138.670703,201.672013 138.411104,203.997844 139.3483,205.749037 C140.285497,207.499351 146.844992,210.595179 146.844992,210.595179 L146.844992,193.089405 L141.913491,191.84069 Z" id="Fill-309" fill="#BC7E46"></path>
            <path d="M152.82061,198.138122 C152.82061,198.138122 153.667167,205.076016 154.864842,208.394484 C156.062518,211.713831 156.322997,214.339741 155.3858,215.007659 C154.448604,215.676456 147.889108,211.198153 147.889108,211.198153 L147.889108,193.691499 L152.82061,198.138122 Z" id="Fill-311" fill="#BC7E46"></path>
            <path d="M155.36996,214.385413 C154.275244,211.939022 152.565411,211.858943 151.129256,210.727267 C149.693102,209.595591 149.565502,208.160316 149.565502,208.160316 L149.565502,205.334647 L147.35847,204.082412 L145.153199,202.787057 L145.153199,205.612726 C145.153199,205.612726 145.024719,206.900161 143.588564,206.373923 C142.15241,205.846805 140.442576,203.952172 139.34786,205.134888 C138.254024,206.318483 138.595463,209.237432 138.595463,209.237432 L146.683513,213.907575 L148.034308,214.687252 L156.122358,219.356515 C156.122358,219.356515 156.464676,216.831804 155.36996,214.385413" id="Fill-313" fill="#EFCA95"></path>
            <path d="M152.137468,200.873504 C152.137468,204.089012 149.993796,207.500759 147.350286,205.973965 C144.705896,204.44805 142.563104,198.560872 142.563104,195.345364 C142.563104,192.128976 144.705896,190.760582 147.350286,192.286496 C149.993796,193.81329 152.137468,197.657996 152.137468,200.873504" id="Fill-315" fill="#F7D9AD"></path>
            <path d="M155.36996,214.385413 C154.275244,211.939022 152.565411,211.858943 151.129256,210.727267 C150.779898,210.451828 150.508859,210.157909 150.296779,209.87191 C147.767669,211.645983 145.088079,207.591839 144.419281,206.480403 C144.207202,206.520883 143.937043,206.501523 143.588564,206.373923 C142.15241,205.846805 140.442576,203.952172 139.34786,205.134888 C138.254024,206.318483 138.595463,209.237432 138.595463,209.237432 L146.683513,213.907575 L148.034308,214.687252 L156.122358,219.356515 C156.122358,219.356515 156.464676,216.831804 155.36996,214.385413" id="Fill-317" fill="#FFDF5A"></path>
            <path d="M147.530774,210.335228 C145.71622,209.288032 144.329346,206.851321 144.270386,206.746602 C144.064467,206.380523 144.078547,206.004765 144.301186,205.906205 C144.523825,205.806765 144.870544,206.022364 145.076463,206.386683 C145.087903,206.406923 146.239819,208.414195 147.596773,209.156913 C148.326291,209.553791 149.011808,209.515951 149.634846,209.044273 C149.828445,208.897314 150.174284,209.060993 150.409243,209.410352 C150.642442,209.75971 150.675002,210.160989 150.481403,210.307948 C149.645406,210.940666 148.683569,210.967066 147.620533,210.385388 C147.590613,210.368668 147.560694,210.352828 147.530774,210.335228" id="Fill-319" fill="#CEB54D"></path>
            <path d="M146.144603,193.505291 C146.144603,193.505291 149.994588,196.106562 151.196664,199.489269 C152.398739,202.871096 151.836422,204.822049 151.836422,204.822049 C151.836422,204.822049 153.345616,202.027179 152.832578,198.144634 C152.577379,196.211281 151.406983,194.013049 149.413791,192.400895 C147.420598,190.788741 146.167483,190.565222 145.663245,190.949781 C145.159007,191.333459 146.144603,193.505291 146.144603,193.505291" id="Fill-321" fill="#BC7E46"></path>
            <path d="M148.601554,194.92323 C148.601554,194.92323 145.012047,193.891874 143.809972,195.885946 C142.607896,197.880019 143.032935,198.469617 143.032935,198.469617 C143.032935,198.469617 141.400541,195.130029 141.913579,191.840602 C142.168778,190.202048 143.339173,189.355491 145.332366,190.044528 C147.325558,190.733566 148.578674,191.956761 149.082032,192.923877 C149.58715,193.890114 148.601554,194.92323 148.601554,194.92323" id="Fill-323" fill="#BC7E46"></path>
            <path d="M151.717622,200.998991 C148.948272,194.443016 147.350198,196.203009 147.350198,196.203009 C147.350198,196.203009 146.431482,193.886858 144.659168,195.077493 C143.110374,196.11941 142.438937,193.883338 142.438937,193.883338 C142.438937,193.883338 146.022283,192.264144 146.372522,192.509663 C146.723641,192.755182 149.294111,194.583815 149.64523,195.109173 C149.995468,195.634531 151.755462,198.804279 151.755462,198.804279 C151.755462,198.804279 151.949941,201.548109 151.717622,200.998991" id="Fill-325" fill="#BC7E46"></path>
            <polygon id="Fill-327" fill="#FFFFFF" points="126.205902 203.095847 103.289907 189.865977 103.289907 163.569915 126.205902 176.800666"></polygon>
            <path d="M103.290347,163.569915 L103.290347,189.865977 L126.206342,203.095847 L126.206342,176.800666 L103.290347,163.569915 Z M105.419939,167.258862 L124.07587,178.030901 L124.07587,199.406901 L105.419939,188.635742 L105.419939,167.258862 Z" id="Fill-329" fill="#D7DCE0"></path>
            <path d="M122.358468,195.351172 C121.319192,192.946141 119.694718,192.910942 118.329843,191.821506 C116.965848,190.73295 116.843529,189.309115 116.843529,189.309115 L116.843529,186.498406 L114.748256,185.31041 L112.652104,184.078415 L112.652104,186.889124 C112.652104,186.889124 112.530665,188.173039 111.16579,187.685521 C109.801795,187.198883 108.177321,185.35881 107.138045,186.563525 C106.097889,187.768241 106.423488,190.66343 106.423488,190.66343 L114.106739,195.099493 L115.389774,195.840451 L123.073025,200.276514 C123.073025,200.276514 123.397744,197.755323 122.358468,195.351172" id="Fill-331" fill="#E0BCA2"></path>
            <path d="M119.287983,181.995726 C119.287983,185.194514 117.251671,188.642342 114.74016,187.191227 C112.22777,185.741872 110.191458,179.942694 110.191458,176.743906 C110.191458,173.545998 112.22777,172.129203 114.74016,173.579438 C117.251671,175.029673 119.287983,178.797818 119.287983,181.995726" id="Fill-333" fill="#EAC5A7"></path>
            <path d="M107.137693,186.563261 C106.098417,187.767977 106.423136,190.663166 106.423136,190.663166 L113.962067,195.01563 L110.877679,187.565578 C109.578804,186.95662 108.105689,185.443026 107.137693,186.563261" id="Fill-335" fill="#666E7C"></path>
            <path d="M118.330195,191.82177 C117.998436,191.556891 117.740597,191.271772 117.539078,190.992813 C115.136687,192.822326 112.590857,188.859701 111.955499,187.770265 C111.75398,187.816905 111.497021,187.804585 111.166142,187.685785 C111.071102,187.652345 110.975183,187.610985 110.878383,187.565226 L113.961891,195.016158 L114.107091,195.099757 L115.389246,195.839835 L115.829244,196.093274 L118.902193,192.217768 C118.708594,192.098969 118.516754,191.970489 118.330195,191.82177" id="Fill-337" fill="#7C8699"></path>
            <path d="M122.358468,195.351172 C121.460871,193.27526 120.127676,192.963741 118.902721,192.217504 L115.828892,196.09389 L123.073025,200.276514 C123.073025,200.276514 123.397744,197.755323 122.358468,195.351172" id="Fill-339" fill="#666E7C"></path>
            <path d="M114.911584,191.524419 C113.18767,190.529142 111.869435,188.141711 111.813995,188.038752 C111.618636,187.680593 111.630956,187.306595 111.843035,187.201875 C112.055115,187.098915 112.384233,187.303075 112.579593,187.660353 C112.591033,187.680593 113.683108,189.646506 114.974064,190.351383 C115.666621,190.728022 116.318699,190.671702 116.910056,190.185944 C117.093976,190.035464 117.423094,190.188584 117.644854,190.530022 C117.867493,190.871461 117.898293,191.2701 117.714373,191.421459 C116.920616,192.072657 116.0063,192.123696 114.996944,191.572819 C114.967904,191.556099 114.939744,191.541139 114.911584,191.524419" id="Fill-341" fill="#F2F3F4"></path>
            <path d="M113.594229,174.821641 C113.594229,174.821641 117.370295,177.039233 118.51165,180.371781 C119.653886,183.705208 118.884769,184.600165 118.884769,184.600165 C118.884769,184.600165 120.435323,183.11209 119.947805,179.264745 C119.704926,177.348112 119.338847,175.20532 117.445974,173.653006 C115.552221,172.099811 113.616229,171.897412 113.13751,172.292531 C112.658792,172.687649 113.594229,174.821641 113.594229,174.821641" id="Fill-343" fill="#725D46"></path>
            <path d="M116.093243,177.178096 C116.093243,177.178096 111.924699,173.972268 110.782463,175.987461 C109.641108,178.002653 110.638144,179.840086 110.638144,179.840086 C110.638144,179.840086 109.08759,176.561219 109.575108,173.275311 C109.817987,171.639397 110.439265,169.989403 112.333018,170.624761 C114.22677,171.258359 115.906684,173.219871 116.385402,174.167628 C116.864121,175.116264 116.093243,177.178096 116.093243,177.178096" id="Fill-345" fill="#725D46"></path>
            <path d="M115.38467,174.681546 C115.38467,174.681546 110.557888,172.431394 110.605408,174.351547 C110.626528,175.191944 111.061246,175.858101 111.544364,176.34122 C112.170922,176.968657 112.869639,177.281936 113.453957,177.244976 L117.709621,177.584655 L115.38467,174.681546 Z" id="Fill-347" fill="#725D46"></path>
            <path d="M115.49555,192.215304 C115.49555,192.569063 115.247391,192.713382 114.941152,192.536503 C114.634913,192.360504 114.386754,191.930185 114.386754,191.574667 C114.386754,191.220908 114.634913,191.076588 114.941152,191.253468 C115.247391,191.430347 115.49555,191.861545 115.49555,192.215304" id="Fill-349" fill="#6CBCB0"></path>
            <polygon id="Fill-351" fill="#6CBCB0" points="114.94124 192.130296 113.973243 195.021966 115.909236 196.140441"></polygon>
            <path d="M185.84627,250.736845 C183.699958,250.736845 181.690926,250.038128 180.067332,247.968375 C172.795039,238.69145 157.735655,213.140746 174.899991,176.360404 C180.351571,164.679327 186.237869,158.756069 192.395206,158.756069 C192.446245,158.756069 192.496405,158.757829 192.547445,158.757829 C202.135889,158.909189 208.425226,173.327935 208.688345,173.941293 C208.867864,174.295931 213.674406,184.023415 213.674406,193.960338 L211.544814,193.960338 C211.544814,184.537333 206.805152,174.933929 206.756752,174.838889 C206.672272,174.64529 200.722614,161.014141 192.510485,160.887421 C192.471765,160.887421 192.433926,160.885661 192.394326,160.885661 C187.138105,160.885661 181.901245,166.395321 176.829824,177.26416 C160.165326,212.972666 174.714312,237.686494 181.743726,246.65278 C184.223556,249.819008 188.019862,248.552693 192.414566,247.086619 L192.675045,246.998619 C199.971097,244.567188 201.092213,244.192309 209.666021,239.716646 L210.651617,241.605119 C201.92733,246.160862 200.617895,246.59734 193.349122,249.020851 L193.088643,249.105331 C190.729372,249.894688 188.204661,250.736845 185.84627,250.736845" id="Fill-353" fill="#7C8699"></path>
            <path d="M178.173403,222.04332 C178.173403,227.43242 174.365657,229.603372 169.669995,226.891222 C164.973452,224.179952 161.166587,217.613417 161.166587,212.224317 C161.166587,206.836097 164.973452,204.665146 169.669995,207.376415 C174.365657,210.087685 178.173403,216.654221 178.173403,222.04332" id="Fill-355" fill="#4B5668"></path>
            <path d="M217.508552,202.446146 C217.508552,207.835246 213.701686,210.005318 209.005143,207.294048 C204.308601,204.582778 200.501735,198.016242 200.501735,192.627143 C200.501735,187.238043 204.308601,185.067971 209.005143,187.779241 C213.701686,190.490511 217.508552,197.057046 217.508552,202.446146" id="Fill-357" fill="#4B5668"></path>
            <path d="M213.570478,240.617763 C213.570478,242.560796 211.995284,244.13599 210.052252,244.13599 C208.109219,244.13599 206.534025,242.560796 206.534025,240.617763 C206.534025,238.67473 208.109219,237.100416 210.052252,237.100416 C211.995284,237.100416 213.570478,238.67473 213.570478,240.617763" id="Fill-359" fill="#4B5668"></path>
          </g>
        </g>
      </g>
    </g>
  </g>
</svg>
