<?xml version="1.0" standalone="no"?>
<!DOCTYPE svg PUBLIC "-//W3C//DTD SVG 20010904//EN"
 "http://www.w3.org/TR/2001/REC-SVG-20010904/DTD/svg10.dtd">
<svg version="1.0" xmlns="http://www.w3.org/2000/svg"
 width="800.000000pt" height="800.000000pt" viewBox="0 0 800.000000 800.000000"
 preserveAspectRatio="xMidYMid meet">
<metadata>
Created by potrace 1.16, written by Peter Selinger 2001-2019
</metadata>
<g transform="translate(0.000000,800.000000) scale(0.100000,-0.100000)"
fill="#000000" stroke="none">
<path d="M0 4000 l0 -4000 4000 0 4000 0 0 4000 0 4000 -4000 0 -4000 0 0
-4000z m2709 -140 c139 -23 254 -117 220 -182 -26 -49 -72 -52 -115 -7 -60 63
-153 89 -249 69 -77 -16 -115 -53 -115 -112 0 -74 37 -98 208 -133 138 -29
230 -71 269 -122 23 -30 28 -48 31 -109 4 -65 1 -79 -22 -118 -54 -93 -153
-136 -309 -136 -139 0 -220 27 -298 97 -48 43 -52 81 -13 112 38 30 57 26 106
-19 51 -48 116 -70 206 -70 118 0 177 32 189 103 5 32 1 40 -26 66 -26 25 -55
35 -169 62 -228 53 -312 112 -320 228 -5 73 8 116 54 170 76 88 205 125 353
101z m604 1 c13 -5 28 -18 33 -28 5 -10 11 -144 14 -298 5 -257 7 -283 26
-320 28 -56 88 -85 173 -85 93 0 142 26 175 93 26 51 26 51 26 323 0 244 2
274 18 292 27 33 63 37 96 11 l27 -21 -3 -302 -3 -302 -30 -59 c-55 -108 -148
-155 -305 -155 -154 0 -248 47 -305 150 l-30 55 -3 295 c-2 162 -1 304 2 315
3 12 16 27 28 33 29 14 32 14 61 3z m1256 -1 c114 -16 231 -95 231 -155 0 -32
-33 -65 -65 -65 -15 0 -44 17 -74 44 -38 34 -63 47 -105 56 -127 26 -246 -28
-246 -112 0 -66 47 -98 193 -129 229 -48 302 -97 322 -216 16 -100 -45 -197
-154 -246 -65 -29 -232 -36 -321 -13 -77 20 -163 74 -185 116 -14 27 -14 33
-1 59 27 51 62 54 113 7 56 -50 100 -68 174 -74 99 -7 154 4 194 40 61 53 43
127 -38 157 -16 6 -84 24 -153 41 -198 47 -261 90 -284 193 -31 137 72 269
231 296 73 12 94 12 168 1z m1099 -16 c18 -12 22 -24 20 -52 -5 -57 -23 -62
-255 -62 -244 0 -233 7 -233 -137 l0 -93 189 0 c167 0 191 -2 211 -18 28 -22
30 -70 4 -89 -13 -10 -66 -13 -211 -13 l-193 0 0 -98 c0 -150 -13 -142 242
-142 233 0 248 -4 248 -61 0 -57 -10 -59 -257 -59 -223 0 -227 0 -269 25 -28
16 -49 39 -63 68 -20 41 -21 59 -21 323 0 311 5 338 69 383 50 36 74 39 291
40 173 1 209 -2 228 -15z m-4726 -2899 c-34 -60 -39 -64 -72 -65 -65 0 -65 12
-1 73 40 38 68 57 84 57 l25 0 -36 -65z m184 26 c-13 -86 -18 -91 -90 -91 -36
0 -67 4 -71 9 -3 6 7 35 22 65 l27 56 59 0 60 0 -7 -39z m176 -18 l30 -53 -75
0 -75 0 -11 50 c-6 28 -11 53 -11 56 0 3 25 4 56 2 l57 -3 29 -52z m113 2 l60
-55 -47 0 c-45 0 -49 2 -73 41 -37 58 -40 69 -19 69 11 -1 46 -25 79 -55z"/>
</g>
</svg>
