<?xml version="1.0" encoding="UTF-8" standalone="no"?>
<!DOCTYPE svg PUBLIC "-//W3C//DTD SVG 1.1//EN" "http://www.w3.org/Graphics/SVG/1.1/DTD/svg11.dtd">
<svg width="100%" height="100%" viewBox="0 0 1500 1500" version="1.1" xmlns="http://www.w3.org/2000/svg" xmlns:xlink="http://www.w3.org/1999/xlink" xml:space="preserve" xmlns:serif="http://www.serif.com/" style="fill-rule:evenodd;clip-rule:evenodd;stroke-linejoin:round;stroke-miterlimit:2;">
    <g transform="matrix(1,0,0,1,-1687.5,0)">
        <g transform="matrix(4.16667,0,0,4.16667,1687.5,0)">
            <rect id="Page-2" serif:id="Page 2" x="0" y="0" width="360" height="360" style="fill:none;"/>
            <g id="Page-21" serif:id="Page 2">
                <g id="Layer-1" serif:id="Layer 1">
                    <g transform="matrix(-5.32907e-15,84.397,84.397,5.32907e-15,253.132,139.255)">
                        <ellipse cx="0.483" cy="-0" rx="0.357" ry="0.357" style="fill:url(#_Linear1);"/>
                    </g>
                    <g transform="matrix(8.46615,210.789,210.789,-8.46615,96.7804,72.0654)">
                        <path d="M0.499,-0.319C0.691,-0.327 0.852,-0.178 0.86,0.013C0.865,0.142 0.8,0.256 0.698,0.32L0.634,0.218C0.7,0.177 0.743,0.102 0.739,0.018C0.734,-0.107 0.629,-0.204 0.504,-0.199C0.379,-0.194 0.282,-0.089 0.287,0.036C0.29,0.12 0.339,0.191 0.408,0.228L0.352,0.334C0.246,0.279 0.172,0.169 0.167,0.041C0.159,-0.15 0.308,-0.311 0.499,-0.319Z" style="fill:url(#_Linear2);fill-rule:nonzero;"/>
                    </g>
                    <g transform="matrix(7.17813,178.72,178.72,-7.17813,198.889,91.6722)">
                        <path d="M0.346,-0.093C0.471,-0.147 0.489,-0.317 0.377,-0.395C0.335,-0.425 0.307,-0.472 0.304,-0.527C0.301,-0.62 0.373,-0.698 0.466,-0.702C0.559,-0.706 0.637,-0.634 0.641,-0.541C0.643,-0.484 0.618,-0.433 0.576,-0.401C0.471,-0.319 0.514,-0.146 0.636,-0.104C0.792,-0.052 0.907,0.093 0.914,0.267C0.923,0.492 0.748,0.683 0.522,0.692C0.296,0.701 0.106,0.525 0.097,0.3C0.09,0.125 0.194,-0.028 0.346,-0.093ZM0.495,0.017C0.348,0.023 0.233,0.147 0.239,0.294C0.245,0.441 0.369,0.556 0.516,0.55C0.664,0.544 0.778,0.42 0.772,0.273C0.766,0.125 0.642,0.011 0.495,0.017Z" style="fill:url(#_Linear3);fill-rule:nonzero;"/>
                    </g>
                </g>
            </g>
        </g>
    </g>
    <defs>
        <linearGradient id="_Linear1" x1="0" y1="0" x2="1" y2="0" gradientUnits="userSpaceOnUse" gradientTransform="matrix(0.999194,0.0401318,0.0401318,-0.999194,0.000389148,-0.0193857)"><stop offset="0" style="stop-color:#56c0a2;stop-opacity:1"/><stop offset="1" style="stop-color:#2768b3;stop-opacity:1"/></linearGradient>
        <linearGradient id="_Linear2" x1="0" y1="0" x2="1" y2="0" gradientUnits="userSpaceOnUse" gradientTransform="matrix(1,-6.93889e-18,-6.93889e-18,-1,0,0.0074013)"><stop offset="0" style="stop-color:#2768b3;stop-opacity:1"/><stop offset="1" style="stop-color:#56c0a2;stop-opacity:1"/></linearGradient>
        <linearGradient id="_Linear3" x1="0" y1="0" x2="1" y2="0" gradientUnits="userSpaceOnUse" gradientTransform="matrix(1,0,0,-1,0,-0.00512685)"><stop offset="0" style="stop-color:#56c0a2;stop-opacity:1"/><stop offset="1" style="stop-color:#2768b3;stop-opacity:1"/></linearGradient>
    </defs>
</svg>
